<svg version="1.1" id="Layer_1" xmlns="http://www.w3.org/2000/svg" xmlns:xlink="http://www.w3.org/1999/xlink" x="0px" y="0px" width="100%" viewBox="0 0 3840 2160" enable-background="new 0 0 3840 2160" xml:space="preserve">

<path fill="#F2F2F2" opacity="1.000000" stroke="none" d="
M1697.021484,141.510101 
	C1722.768921,134.233276 1747.306152,125.404594 1772.806274,120.603958 
	C1802.203369,115.069656 1831.869873,110.930984 1861.465942,106.497536 
	C1905.914551,99.839233 1950.621948,95.474899 1995.441772,92.310753 
	C2040.029419,89.163002 2084.691406,89.379272 2129.352295,89.906441 
	C2129.685303,89.910362 2130.020996,89.968765 2130.351074,89.944046 
	C2162.496338,87.535881 2193.020264,96.013008 2223.643066,103.831215 
	C2224.287598,103.995750 2224.962646,104.049644 2225.596924,104.243095 
	C2253.235596,112.678528 2262.995850,129.231033 2256.344971,157.402649 
	C2249.393066,186.847931 2241.371094,216.052078 2234.936768,245.605453 
	C2223.470947,298.267181 2213.847168,351.276917 2207.617920,404.862030 
	C2203.852051,437.258728 2201.334229,469.730225 2199.495117,502.296387 
	C2197.520264,537.274109 2197.320068,572.244995 2198.717529,607.188416 
	C2200.740723,657.781494 2205.914307,708.045715 2218.951172,757.190308 
	C2224.759277,779.085266 2232.084717,800.483398 2240.637451,821.457092 
	C2241.640381,823.916504 2242.951904,826.253967 2244.179932,828.617004 
	C2246.286621,832.671631 2249.223145,833.910828 2254.014404,833.026733 
	C2265.559570,830.896118 2276.270020,826.239990 2287.411377,822.918335 
	C2312.581055,815.414062 2337.719971,807.803772 2362.935547,800.456848 
	C2371.295654,798.020996 2378.927002,799.237915 2383.838623,807.450928 
	C2385.628662,810.443787 2387.665771,811.164917 2391.189697,810.838196 
	C2423.312500,807.860107 2455.429443,804.703125 2487.610840,802.522766 
	C2506.882324,801.217041 2526.161865,800.113342 2545.402344,798.344543 
	C2592.543213,794.010925 2639.174561,787.059570 2684.333984,772.190979 
	C2688.067383,770.961853 2691.875977,769.363953 2696.032959,770.525879 
	C2698.520752,771.221130 2700.400635,769.951904 2702.465332,768.681824 
	C2713.543945,761.866943 2724.147705,753.768005 2732.898926,744.750977 
	C2748.302246,728.879517 2766.005859,714.971558 2778.281494,696.147095 
	C2780.138672,693.299133 2782.586670,691.059021 2785.600342,689.505066 
	C2796.550293,683.858582 2808.284912,690.384888 2809.478516,703.183044 
	C2810.503174,714.169739 2809.757324,725.209961 2807.662109,736.030151 
	C2802.249023,763.983887 2790.557861,789.039917 2771.839111,810.607910 
	C2763.705811,819.979370 2753.790039,827.277588 2743.226807,833.724243 
	C2740.741699,835.240906 2737.574707,835.883362 2735.881104,839.284851 
	C2748.657471,844.840149 2761.319824,850.388000 2773.087402,857.844482 
	C2787.819336,867.179199 2801.262695,877.997620 2813.005371,890.818848 
	C2817.383057,895.598450 2820.900391,896.686279 2827.511963,894.276794 
	C2868.281494,879.418823 2910.316650,872.308777 2953.875977,875.327148 
	C2964.488525,876.062500 2975.094238,876.635681 2985.678711,877.816833 
	C2998.932129,879.295776 3008.356445,886.908325 3016.412842,896.534363 
	C3021.131836,902.172729 3021.093018,910.138916 3017.093506,916.156860 
	C3013.195557,922.021912 3007.643311,924.195923 3000.708984,922.878479 
	C2965.228760,916.137451 2932.780029,924.851501 2902.185059,942.485291 
	C2892.389160,948.131409 2882.747559,954.088318 2873.362061,960.390076 
	C2865.453857,965.700195 2865.798340,964.600098 2869.896484,972.726685 
	C2877.847900,988.493713 2884.649414,1004.780945 2890.013916,1021.581787 
	C2901.045654,1056.134521 2905.611328,1091.554199 2904.360352,1127.882446 
	C2902.456055,1183.200806 2892.581055,1236.957886 2874.320801,1289.158447 
	C2860.870361,1327.609253 2843.170166,1364.074097 2821.640869,1398.649780 
	C2809.855469,1417.577271 2798.479248,1436.874146 2782.460693,1452.695435 
	C2771.564453,1463.457397 2760.239258,1473.788940 2748.993164,1484.190796 
	C2742.818115,1489.902466 2735.185303,1491.279175 2727.614502,1488.528320 
	C2722.125488,1486.533813 2719.169189,1488.397827 2715.671631,1491.964478 
	C2698.646484,1509.325073 2680.968994,1525.992432 2662.605957,1541.953125 
	C2640.715820,1560.979614 2617.839844,1578.723877 2594.180908,1595.457275 
	C2555.787598,1622.611938 2515.352295,1646.336548 2473.035645,1666.851929 
	C2463.164062,1671.637695 2453.149414,1676.155640 2443.465332,1681.295288 
	C2418.788574,1694.391479 2400.128662,1714.257812 2383.435791,1736.093140 
	C2366.047119,1758.838745 2348.765869,1781.651611 2330.659668,1803.847290 
	C2291.029785,1852.428345 2248.840088,1898.618042 2202.856201,1941.247925 
	C2173.062012,1968.868896 2141.853760,1994.874634 2109.069580,2018.881104 
	C2092.683350,2030.880005 2075.370361,2041.389038 2055.399414,2046.901123 
	C2035.467407,2052.402344 2015.990356,2051.614502 1996.471191,2045.147461 
	C1973.943604,2037.683594 1952.639526,2027.407104 1931.957886,2016.051880 
	C1915.873535,2007.220581 1898.993408,2002.570190 1881.058228,1999.907471 
	C1857.038330,1996.341431 1832.990356,1993.145630 1808.822998,1990.849609 
	C1801.518188,1990.155518 1794.202148,1990.246826 1786.973511,1991.881592 
	C1780.987549,1993.235352 1777.041992,1996.233765 1775.514160,2002.717773 
	C1773.266968,2012.255371 1773.164795,2021.838257 1773.429932,2031.486084 
	C1773.649292,2039.474243 1774.550659,2047.470093 1774.323364,2055.438965 
	C1773.686401,2077.778076 1757.568848,2090.903076 1735.285156,2089.248535 
	C1700.978149,2086.701416 1670.240967,2073.566650 1639.835938,2059.046143 
	C1594.695679,2037.488159 1554.130859,2009.278809 1517.977173,1974.771484 
	C1510.041382,1967.197021 1502.890137,1958.795532 1495.449707,1950.708618 
	C1490.164795,1944.964233 1486.033813,1938.245117 1484.661377,1930.697998 
	C1483.106689,1922.148071 1477.945068,1919.439941 1470.414185,1918.354858 
	C1451.968262,1915.696655 1433.569092,1912.714966 1415.123291,1910.055420 
	C1386.405396,1905.914917 1358.115723,1899.831543 1330.837402,1889.917847 
	C1314.256104,1883.891602 1298.417358,1876.016479 1284.083984,1865.507935 
	C1275.471924,1859.194092 1266.490723,1853.630859 1256.715942,1849.198853 
	C1236.138672,1839.869263 1218.944824,1825.600586 1202.355469,1810.609375 
	C1186.544312,1796.321411 1170.717529,1782.034790 1155.338013,1767.288452 
	C1129.267090,1742.290161 1112.933960,1711.971069 1108.007568,1676.021118 
	C1101.965576,1631.926880 1112.729004,1591.918213 1139.954224,1556.907349 
	C1163.999146,1525.986206 1193.168823,1500.082397 1223.761719,1475.780762 
	C1278.229736,1432.513550 1338.879883,1400.414795 1403.982422,1376.509277 
	C1422.699463,1369.636475 1441.827881,1363.890625 1460.701782,1357.435303 
	C1468.071289,1354.914673 1467.936279,1354.681763 1466.584961,1346.816772 
	C1463.373169,1328.121948 1459.332031,1309.629028 1454.033569,1291.396851 
	C1448.864502,1273.609253 1441.237549,1257.100586 1429.355713,1242.813599 
	C1417.713379,1228.814819 1413.849731,1212.813232 1416.832642,1195.192749 
	C1417.899048,1188.893311 1416.761719,1183.398926 1414.443970,1177.762817 
	C1409.858765,1166.613037 1403.364624,1156.563965 1396.852783,1146.504517 
	C1359.211670,1088.356201 1321.105225,1030.535400 1279.278198,975.253662 
	C1246.284790,931.647034 1210.997314,890.020996 1172.496948,851.189575 
	C1152.561890,831.082947 1131.800781,811.807678 1110.037476,793.666626 
	C1093.228882,779.655457 1073.381104,770.800415 1053.879639,761.456787 
	C1036.491577,753.125977 1019.026306,744.926453 1001.336426,737.266418 
	C990.887268,732.741699 987.282532,725.245300 987.584595,714.371521 
	C988.509216,681.085022 995.038452,649.110046 1007.377258,618.107605 
	C1026.974976,568.866638 1056.810547,526.279968 1091.189697,486.552887 
	C1104.260254,471.449158 1116.600708,455.428650 1131.390625,442.190796 
	C1142.596802,432.160675 1150.353394,419.519592 1161.209473,409.490173 
	C1177.357666,394.571564 1193.853638,380.032379 1211.047852,366.354004 
	C1243.118774,340.840668 1276.519775,317.179901 1311.418579,295.638580 
	C1358.512085,266.570038 1407.714966,241.648376 1458.607300,219.987686 
	C1512.238892,197.161072 1567.510620,179.020218 1623.328003,162.473694 
	C1647.551392,155.292862 1671.921997,148.608490 1697.021484,141.510101 
z" data-index="1" style="visibility: visible;"></path>
<path fill="#020101" opacity="1.000000" stroke="none" d="
M1785.522095,136.560883 
	C1802.452271,131.739792 1819.255005,129.325455 1835.978149,126.626274 
	C1880.370728,119.461182 1925.013672,114.168282 1969.818604,110.381615 
	C2024.663086,105.746475 2079.624756,105.934021 2134.623535,105.794930 
	C2164.125977,105.720322 2191.933594,112.384369 2219.952148,119.546761 
	C2220.597900,119.711914 2221.256836,119.833328 2221.890869,120.034920 
	C2240.122803,125.831528 2245.346924,134.500031 2240.971680,153.219391 
	C2235.367920,177.195587 2229.092041,201.014313 2223.451172,224.982178 
	C2207.573730,292.445129 2195.670166,360.602448 2188.525391,429.556274 
	C2182.197266,490.624420 2180.081299,551.865906 2182.696777,613.196716 
	C2185.446045,677.669495 2194.465088,741.140381 2216.132812,802.300171 
	C2219.794922,812.636597 2223.668213,822.957031 2228.335693,832.864746 
	C2235.715088,848.528931 2243.636230,852.539124 2260.519043,848.009033 
	C2279.134277,843.013977 2297.345215,836.528076 2315.803467,830.926025 
	C2331.403320,826.191345 2347.104980,821.792969 2362.760254,817.241089 
	C2364.037109,816.869812 2365.312256,816.488647 2366.572754,816.066345 
	C2368.939209,815.273865 2370.355713,816.285461 2371.249023,818.420837 
	C2372.242432,820.794800 2372.434326,822.707642 2369.642090,824.254822 
	C2365.917969,826.318298 2361.538818,827.335083 2357.983154,831.384338 
	C2415.848389,822.696472 2473.563721,820.675354 2531.043213,815.906433 
	C2583.550293,811.550232 2635.653564,804.763245 2686.062744,788.418152 
	C2688.926758,787.489502 2692.625488,784.332153 2695.225586,789.652466 
	C2695.774902,790.775635 2698.291504,789.617798 2699.853271,789.005859 
	C2728.236816,777.882202 2753.472412,762.374390 2772.094727,736.702332 
	C2781.259766,733.502502 2780.032227,738.751038 2778.147461,744.909180 
	C2757.916504,768.371033 2734.288330,786.239380 2705.643311,795.788879 
	C2689.277832,801.244690 2673.049561,807.379822 2656.290039,811.675171 
	C2625.468018,819.574707 2597.481201,832.906738 2573.284180,853.870911 
	C2566.402100,859.833496 2561.102539,867.088623 2555.361816,873.991943 
	C2550.886963,879.373291 2546.406006,882.163879 2540.473877,874.962280 
	C2528.660645,896.841736 2514.888428,916.968079 2506.130615,939.802551 
	C2504.452148,944.178772 2502.985596,948.578064 2502.779297,953.319641 
	C2502.315674,963.989380 2506.272705,968.891479 2517.195801,973.290955 
	C2526.254395,976.939697 2531.690430,973.073914 2536.557861,966.118408 
	C2540.766602,960.104248 2544.889160,954.042297 2548.492920,947.654724 
	C2551.777100,941.834229 2556.570801,939.187439 2563.252441,939.328674 
	C2569.906250,939.469299 2576.518555,938.891479 2583.169922,938.162048 
	C2605.947021,935.664429 2620.625244,922.326111 2631.354248,903.388367 
	C2635.806152,895.529968 2638.767334,886.997009 2642.054199,878.625610 
	C2651.927246,853.481628 2669.372559,835.569275 2693.771973,824.297852 
	C2698.271973,822.219116 2702.737793,819.709167 2708.666260,820.999084 
	C2709.934814,821.975830 2710.189453,822.731934 2709.868652,823.648804 
	C2709.815430,823.800476 2709.990967,824.098694 2710.192627,824.453369 
	C2710.357910,824.744263 2710.396729,824.443665 2710.680176,823.021118 
	C2722.725586,816.749146 2734.475830,811.212219 2744.393555,802.564575 
	C2752.735352,795.291321 2760.378906,787.454834 2766.000000,776.947998 
	C2768.873047,773.060364 2769.851318,766.906311 2776.766113,771.603516 
	C2770.531250,791.710510 2756.458008,805.112122 2740.104736,816.480530 
	C2735.209717,819.883423 2729.990967,823.138245 2724.456299,825.236389 
	C2713.646484,829.334229 2705.249268,836.924500 2695.886719,842.713867 
	C2696.464355,846.129944 2698.898438,845.519226 2700.662354,845.908630 
	C2744.025635,855.481262 2780.520020,876.590698 2809.430908,910.503418 
	C2814.928711,916.952332 2814.994141,916.910156 2822.332031,913.734985 
	C2865.057129,895.247131 2909.805664,888.951660 2956.019775,891.666260 
	C2964.654297,892.173462 2973.250488,893.382629 2981.886963,893.800110 
	C2990.541748,894.218567 2996.770508,898.365723 3001.967285,904.910706 
	C3000.185791,907.114746 2998.133057,906.121765 2996.458008,905.870972 
	C2960.200684,900.440491 2927.256348,910.295837 2895.861572,927.466675 
	C2880.054199,936.112183 2865.362549,946.495667 2850.321533,956.346680 
	C2845.926758,959.225037 2845.670654,961.534729 2848.087402,965.939697 
	C2857.538818,983.167175 2865.614746,1001.036804 2872.269775,1019.558044 
	C2883.658447,1051.252441 2888.484131,1083.887451 2888.244629,1117.546509 
	C2887.492188,1223.293335 2854.740967,1318.838623 2797.572754,1406.905151 
	C2784.928223,1426.383789 2769.918945,1443.533813 2752.638184,1458.870483 
	C2748.656006,1462.404907 2744.876709,1466.167358 2740.948730,1469.764526 
	C2738.818359,1471.715820 2736.837646,1474.324219 2732.821533,1472.225830 
	C2735.268066,1462.104248 2743.048096,1453.822144 2743.532959,1442.725830 
	C2737.697510,1443.312256 2735.008057,1447.706055 2731.831543,1451.245483 
	C2687.369385,1500.786743 2638.168945,1544.992065 2583.604248,1583.182373 
	C2542.044922,1612.269897 2498.399658,1637.751587 2452.151123,1658.625122 
	C2421.055420,1672.659790 2395.607666,1693.607910 2375.162109,1720.629883 
	C2343.398926,1762.610474 2311.021729,1804.073120 2275.885254,1843.319458 
	C2221.736572,1903.801392 2163.133545,1959.430542 2097.392090,2007.279541 
	C2086.614746,2015.123657 2075.301758,2022.131470 2062.943848,2027.299927 
	C2041.746582,2036.164917 2020.321289,2037.127319 1998.746216,2028.861816 
	C1989.122681,2025.175171 1979.431641,2021.547974 1970.157593,2017.090210 
	C1951.866089,2008.298218 1933.843994,1998.946045 1915.104004,1989.440430 
	C1917.777954,1982.255127 1923.618164,1983.535522 1929.217651,1984.550415 
	C1949.861572,1988.292480 1970.772583,1990.994751 1991.083252,1996.034546 
	C2017.152710,2002.503296 2041.358887,1996.876221 2065.328369,1988.112305 
	C2097.689941,1976.279907 2126.014160,1957.525391 2150.959473,1934.052368 
	C2206.982178,1881.335693 2254.504150,1821.341553 2298.935303,1758.787598 
	C2344.132080,1695.155640 2383.888184,1628.161011 2421.877930,1560.063965 
	C2454.871338,1500.923218 2482.373291,1439.208862 2508.451416,1376.807861 
	C2511.470459,1369.583862 2510.759277,1363.816406 2505.354980,1357.660889 
	C2495.037598,1345.909058 2485.120361,1333.783325 2475.384521,1321.529053 
	C2472.860596,1318.352295 2470.080078,1315.569580 2465.920898,1313.120728 
	C2463.508545,1310.623779 2462.526611,1308.299805 2462.939941,1304.811646 
	C2473.283203,1297.152588 2484.571533,1299.943481 2493.399902,1312.683960 
	C2500.605957,1323.083496 2509.601074,1330.794678 2522.038086,1332.666382 
	C2532.848389,1334.293335 2543.983398,1334.349365 2554.847656,1331.973267 
	C2602.859375,1321.472412 2636.862305,1292.849487 2660.786133,1250.726196 
	C2677.160400,1221.895874 2683.968506,1189.858276 2693.077393,1158.571533 
	C2710.429932,1098.970581 2737.025391,1044.261719 2778.350098,997.391113 
	C2797.199219,976.012451 2819.924561,959.082947 2842.753174,942.285828 
	C2860.072998,929.542175 2878.637451,918.583191 2897.211426,904.314270 
	C2840.015137,916.361877 2789.873779,937.664734 2752.807373,982.531006 
	C2739.621582,998.491638 2728.789551,1016.237000 2722.461182,1036.188843 
	C2714.849609,1060.187622 2700.461426,1080.047974 2685.347656,1099.621582 
	C2655.871582,1137.796509 2621.212158,1170.833374 2584.416016,1201.722656 
	C2575.883301,1208.885498 2567.191650,1216.777222 2553.908447,1214.463135 
	C2552.675049,1211.099976 2553.752197,1208.611572 2555.370117,1206.480347 
	C2582.870117,1170.255127 2593.494873,1127.829346 2600.518799,1084.056885 
	C2603.684082,1064.329224 2606.268555,1044.514893 2609.564209,1024.804810 
	C2611.113037,1015.542297 2610.224609,1014.717651 2600.827637,1016.571533 
	C2532.965088,1029.959473 2466.625244,1048.266724 2404.302490,1079.013794 
	C2377.976074,1092.002075 2351.683350,1105.893066 2329.807861,1125.321289 
	C2303.707275,1148.501831 2287.787842,1177.674927 2294.254883,1215.488281 
	C2294.767334,1217.755615 2294.867188,1219.313110 2295.382812,1221.592041 
	C2295.509033,1223.438477 2295.316406,1224.465820 2294.394531,1226.056152 
	C2292.902588,1227.124390 2291.878418,1227.294800 2290.067383,1226.895264 
	C2283.287598,1220.413696 2282.182373,1212.040771 2281.832031,1204.372925 
	C2278.455566,1130.460205 2299.636963,1067.560059 2364.105713,1024.560669 
	C2372.668457,1018.849609 2381.977295,1014.158569 2388.888916,1006.148560 
	C2401.312988,991.750366 2407.899414,975.407043 2407.079102,954.705566 
	C2401.738037,958.582581 2399.264648,962.946106 2396.189941,966.656860 
	C2357.062744,1013.875793 2307.894287,1048.519287 2255.108643,1078.347046 
	C2223.485840,1096.216309 2193.921631,1116.231323 2171.582275,1145.454590 
	C2156.090332,1165.720093 2143.760254,1187.771729 2134.906494,1211.681641 
	C2131.528320,1220.804810 2130.548584,1230.439209 2130.732178,1240.212769 
	C2131.588379,1285.891357 2130.805420,1331.455933 2122.787598,1376.651123 
	C2116.542969,1411.851074 2102.259277,1442.661621 2075.653076,1467.144287 
	C2055.240967,1485.927246 2027.891235,1490.087280 2005.450928,1477.626465 
	C1992.172852,1470.253418 1985.207275,1457.757935 1979.637207,1444.337036 
	C1965.609497,1410.537842 1966.963989,1377.443237 1984.356812,1345.113281 
	C1986.250488,1341.593262 1987.942627,1337.964355 1990.681274,1332.549683 
	C1972.968384,1348.787476 1960.743164,1366.681030 1950.155029,1385.809326 
	C1935.340454,1412.573242 1924.754639,1441.037720 1919.450195,1471.068604 
	C1912.607788,1509.807251 1897.709839,1545.081299 1877.206543,1578.276367 
	C1870.714966,1588.786377 1865.014038,1599.702148 1859.649902,1610.815552 
	C1856.718994,1616.888062 1855.009277,1623.274170 1853.924316,1629.891846 
	C1853.023438,1635.387695 1855.515137,1637.300049 1860.647583,1636.664551 
	C1864.296021,1636.212769 1867.790894,1635.009888 1871.399170,1634.372925 
	C1880.897705,1632.696045 1884.755859,1634.921143 1888.383423,1643.957275 
	C1896.412964,1663.958740 1892.981323,1682.778809 1881.286011,1700.000610 
	C1866.068604,1722.408691 1851.881592,1745.322266 1842.597046,1770.869385 
	C1830.316650,1804.660034 1825.317017,1838.675171 1841.915283,1873.561279 
	C1844.800659,1882.083496 1841.638550,1884.910522 1833.223877,1883.522705 
	C1827.163086,1878.587036 1827.942383,1871.662354 1825.898071,1865.804565 
	C1814.529541,1833.230469 1819.420898,1801.354126 1830.336182,1769.857300 
	C1839.128174,1744.487671 1851.826050,1721.065430 1867.595947,1699.393921 
	C1874.390869,1690.056274 1874.499390,1680.022827 1871.885376,1669.852783 
	C1869.254517,1659.616699 1862.333740,1657.583374 1853.865479,1663.733276 
	C1849.824341,1666.668091 1846.135132,1670.081299 1842.052979,1672.969360 
	C1834.321411,1678.439209 1831.339966,1677.342285 1829.051147,1667.884033 
	C1826.348389,1656.714966 1826.833374,1645.406616 1828.119019,1634.091919 
	C1832.180298,1598.345703 1846.919434,1566.982666 1867.519897,1538.028564 
	C1870.031250,1534.498535 1872.423340,1530.865967 1875.088013,1527.466309 
	C1881.235596,1519.622559 1882.152466,1511.259277 1878.469482,1502.076172 
	C1875.010620,1501.993896 1874.305054,1505.050659 1872.850708,1506.934570 
	C1847.511108,1539.758911 1826.299683,1575.199585 1807.196167,1611.906494 
	C1780.883545,1662.465576 1757.327881,1714.393433 1731.544067,1765.220825 
	C1724.152588,1779.791748 1716.653076,1794.308960 1708.267334,1808.308472 
	C1704.067383,1815.320190 1704.986450,1820.110840 1710.572388,1825.827026 
	C1735.840088,1851.683228 1746.885742,1883.773560 1748.205444,1919.087280 
	C1748.733765,1933.222168 1746.292725,1947.655640 1740.947998,1961.216553 
	C1739.907593,1963.856567 1737.744019,1967.228027 1740.407227,1969.581299 
	C1742.904419,1971.788086 1746.094727,1969.557251 1748.900757,1968.661377 
	C1749.534790,1968.458862 1750.198975,1968.272095 1750.759033,1967.929932 
	C1772.538696,1954.622803 1796.102539,1959.015747 1819.631348,1960.202759 
	C1847.234497,1961.595337 1871.947876,1972.733887 1897.627197,1980.737671 
	C1900.797729,1981.725830 1903.962891,1982.947876 1906.124512,1986.788452 
	C1887.379761,1984.664429 1868.308105,1981.749634 1849.204102,1979.064209 
	C1832.723755,1976.747437 1816.223022,1974.472534 1799.529419,1974.455811 
	C1795.880005,1974.452148 1792.189331,1974.616333 1788.587402,1975.163208 
	C1769.053955,1978.128296 1760.273560,1987.612671 1757.899658,2007.382446 
	C1756.300171,2020.703125 1757.048218,2033.958862 1757.955811,2047.249390 
	C1758.182129,2050.562744 1758.292114,2053.927979 1757.987549,2057.226074 
	C1757.014771,2067.759766 1749.546265,2074.400635 1739.026367,2073.219238 
	C1721.189331,2071.215576 1703.568237,2068.652344 1686.542480,2061.932373 
	C1622.495605,2036.652832 1565.255493,2001.254150 1517.455688,1951.232422 
	C1508.834595,1942.210571 1501.226929,1932.879272 1498.209229,1920.344482 
	C1495.845459,1910.525757 1488.758057,1905.337402 1479.045288,1903.785034 
	C1458.012817,1900.423584 1436.956421,1897.211426 1415.906494,1893.959839 
	C1388.242676,1889.686646 1360.908203,1884.117310 1334.671387,1874.000366 
	C1317.165283,1867.250244 1300.809814,1858.413330 1285.850098,1847.123047 
	C1281.020264,1843.477661 1275.989746,1840.369995 1270.496582,1837.935425 
	C1253.316162,1830.320923 1237.607788,1820.375366 1223.698730,1807.742798 
	C1203.485840,1789.384766 1182.840576,1771.448486 1163.444092,1752.256470 
	C1112.085571,1701.439575 1108.424072,1621.706787 1154.496460,1564.111206 
	C1170.554321,1544.037109 1189.228882,1526.378906 1208.484863,1509.391968 
	C1274.392944,1451.250610 1350.098755,1410.667114 1433.476196,1383.745728 
	C1449.919434,1378.436523 1466.037842,1372.126587 1482.368530,1366.458618 
	C1485.739502,1365.288696 1487.248535,1364.063721 1486.238525,1360.077881 
	C1479.702637,1334.286011 1476.214966,1307.790039 1468.158447,1282.336792 
	C1462.472168,1264.371582 1454.450928,1247.632568 1442.228516,1233.216675 
	C1433.396240,1222.799072 1430.167969,1210.892090 1432.635010,1197.866211 
	C1434.478271,1188.134155 1432.569336,1179.417725 1429.000977,1170.672485 
	C1425.719482,1162.630615 1421.473022,1155.096680 1416.792725,1147.807983 
	C1371.806152,1077.749512 1325.952148,1008.295715 1274.458740,942.749084 
	C1231.761841,888.399658 1184.963257,837.954346 1133.267578,791.993347 
	C1111.297852,772.460693 1086.182861,758.488403 1059.826416,746.276489 
	C1043.529907,738.725830 1027.306763,730.994019 1010.793274,723.946655 
	C1004.794006,721.386353 1003.514587,717.931702 1003.689819,711.814392 
	C1004.656189,678.058899 1012.530151,646.019287 1026.067017,615.189514 
	C1045.674194,570.534912 1073.082642,531.073120 1106.009766,494.448181 
	C1108.741699,492.304901 1110.491455,493.412018 1112.595215,495.568604 
	C1114.303345,501.853851 1110.582642,505.663513 1108.018799,509.838745 
	C1090.594727,538.213684 1072.074707,565.926147 1055.961548,595.092163 
	C1043.809937,617.087402 1037.253418,640.546631 1038.774536,665.931152 
	C1039.951416,685.570007 1056.410767,705.424500 1077.892456,711.886780 
	C1100.444214,718.670959 1123.701050,720.892822 1147.082153,718.860596 
	C1198.787842,714.366638 1247.750732,699.851318 1293.813843,676.004456 
	C1327.692383,658.465515 1358.364258,636.316772 1386.734009,610.726868 
	C1404.067749,595.091675 1420.329834,578.429199 1437.009399,562.161499 
	C1438.439941,560.766296 1439.816895,559.295410 1441.459106,558.154419 
	C1443.334473,556.851196 1445.380127,554.812500 1447.711060,556.299377 
	C1450.447144,558.044800 1449.597778,560.959900 1448.775391,563.531738 
	C1448.165771,565.438538 1447.063232,567.138123 1446.227539,568.950989 
	C1439.926636,582.622742 1441.583862,588.728699 1454.389404,596.105530 
	C1461.082153,599.960999 1465.366943,605.629150 1468.932373,612.129456 
	C1495.991211,661.461121 1522.302246,711.195679 1548.959473,760.743652 
	C1550.850952,764.259338 1553.277832,768.058350 1550.235718,771.856079 
	C1547.382202,775.418213 1543.012451,774.673828 1539.048584,774.182800 
	C1535.006470,773.682068 1531.416748,771.822449 1528.005981,769.722168 
	C1514.645020,761.494629 1502.244385,751.993652 1490.363281,740.755737 
	C1489.325562,739.677490 1489.567871,738.306946 1488.671875,738.303223 
	C1488.072632,738.300720 1488.220215,739.118958 1489.533569,740.052124 
	C1495.682861,756.591187 1501.905884,772.426208 1507.258545,788.538208 
	C1518.460815,822.258728 1537.571533,851.264771 1558.360474,879.653687 
	C1580.604126,910.029480 1600.628662,941.977417 1620.776489,972.628845 
	C1616.898315,957.456848 1609.872314,942.512329 1601.526123,928.101257 
	C1594.789062,916.468811 1589.958862,904.141968 1588.313354,890.653931 
	C1587.732666,885.893799 1588.297852,881.374084 1589.395874,876.809753 
	C1590.414185,872.576050 1592.598145,869.449951 1597.139038,868.700317 
	C1602.073364,867.885498 1604.510376,871.184998 1606.240479,874.937439 
	C1611.681885,886.738220 1617.053711,898.580933 1622.130981,910.536377 
	C1655.177734,988.351013 1696.832275,1061.604370 1740.149292,1133.985718 
	C1742.889404,1138.564453 1745.748901,1143.076172 1749.011841,1147.297729 
	C1758.774414,1159.928711 1768.720093,1162.196533 1783.188843,1155.428467 
	C1802.425171,1146.430420 1818.413330,1132.690552 1835.090820,1119.975220 
	C1844.108521,1113.099976 1852.925659,1105.944580 1863.034668,1100.709717 
	C1866.786133,1098.767090 1871.406494,1096.080322 1874.666748,1100.894287 
	C1877.748169,1105.444458 1874.474854,1109.126831 1871.010498,1112.013428 
	C1823.917969,1151.254517 1778.247559,1192.553711 1723.344604,1221.070068 
	C1671.357422,1248.072144 1615.971802,1264.178589 1559.100464,1269.654663 
	C1566.113281,1269.841675 1574.393311,1272.344482 1582.895874,1273.606445 
	C1591.836426,1274.933350 1600.881836,1274.585815 1609.742188,1275.974731 
	C1619.422241,1277.492188 1627.919800,1281.734375 1630.974487,1291.880615 
	C1645.797485,1341.115845 1667.315918,1387.847534 1684.596680,1436.158447 
	C1691.349487,1455.036987 1696.780273,1474.268311 1699.442017,1494.178467 
	C1702.802246,1519.314087 1720.212646,1536.035400 1735.133667,1554.247559 
	C1737.785034,1557.483765 1740.747559,1557.307861 1743.475830,1553.979126 
	C1746.437012,1550.366577 1749.202759,1546.607422 1751.932861,1542.825928 
	C1772.807251,1513.912598 1793.736694,1485.038818 1814.919800,1456.351196 
	C1817.565063,1452.768799 1820.078125,1446.559326 1825.082153,1448.295532 
	C1830.667969,1450.233643 1828.512451,1456.924316 1828.573242,1461.673218 
	C1828.668457,1469.103882 1826.938110,1476.304443 1823.421509,1482.853149 
	C1798.355835,1529.530151 1772.954590,1576.024780 1746.720703,1622.057373 
	C1740.496216,1632.979736 1730.515991,1639.764771 1719.019287,1643.945435 
	C1704.933838,1649.067505 1690.497559,1653.201050 1676.062744,1657.265869 
	C1666.473267,1659.966309 1658.032227,1658.411255 1649.884521,1651.983398 
	C1615.608276,1624.942627 1581.592896,1597.665405 1550.140503,1567.259521 
	C1535.401123,1553.010742 1526.863525,1535.848877 1521.431519,1516.657104 
	C1518.617920,1506.716309 1516.288452,1496.643311 1513.711670,1486.638306 
	C1511.039429,1476.262695 1504.517944,1470.951050 1494.154663,1469.443970 
	C1472.295288,1466.264893 1450.285156,1465.722534 1428.343262,1467.038940 
	C1388.085083,1469.453979 1349.096069,1478.564453 1312.191406,1494.657593 
	C1265.521240,1515.008789 1221.412720,1539.926392 1185.781494,1577.228882 
	C1153.763184,1610.748657 1142.792236,1650.569092 1152.310913,1696.081543 
	C1158.864136,1727.414185 1174.515625,1752.824829 1200.063721,1772.195190 
	C1210.435791,1780.059448 1218.949829,1789.989624 1228.752930,1798.551514 
	C1261.614136,1827.251587 1301.468384,1841.092651 1342.232300,1852.868164 
	C1356.984253,1857.129639 1372.510864,1857.601807 1387.796265,1855.031860 
	C1407.480713,1851.722534 1426.978516,1853.406372 1446.477051,1856.322021 
	C1450.148804,1856.871094 1453.747559,1857.043091 1457.394775,1856.262085 
	C1520.765503,1842.692139 1581.527222,1822.667847 1635.385742,1785.195190 
	C1669.702148,1761.318970 1697.637329,1731.022705 1723.204468,1698.394897 
	C1756.825317,1655.489014 1784.506226,1608.859131 1809.835693,1560.646118 
	C1842.241211,1498.963989 1872.402466,1436.169312 1903.902832,1374.041870 
	C1923.059082,1336.260132 1940.776245,1298.148682 1948.808960,1255.824097 
	C1955.238159,1221.948120 1974.151489,1193.037964 1993.163574,1164.689575 
	C2021.286377,1122.756348 2053.496582,1084.048340 2089.129150,1048.475952 
	C2124.034668,1013.629333 2161.795166,981.850830 2202.235107,953.402893 
	C2249.476562,920.170715 2297.955566,889.064941 2351.324463,866.376343 
	C2369.851807,858.499939 2389.013184,852.422058 2408.723877,848.160095 
	C2403.212158,849.483398 2397.696289,850.870667 2392.102295,851.628052 
	C2356.355469,856.467773 2323.649170,869.915710 2290.928711,884.566101 
	C2232.637207,910.665588 2175.430176,938.206299 2126.198486,979.779419 
	C2086.156738,1013.591919 2048.015137,1049.350708 2016.489746,1091.453735 
	C1986.509155,1131.494019 1959.653442,1173.583862 1936.934692,1218.218384 
	C1933.754517,1224.466309 1930.115234,1230.439453 1926.736816,1236.566040 
	C1923.691895,1242.088135 1919.829834,1246.016113 1913.146729,1242.747681 
	C1906.000000,1239.252441 1909.189819,1233.831299 1911.518555,1229.095947 
	C1927.716553,1196.156250 1946.592529,1164.818848 1966.738770,1134.119507 
	C1987.030029,1103.198975 2011.243408,1075.025269 2029.887207,1043.023193 
	C2036.924805,1030.943115 2043.846680,1018.748718 2049.856934,1006.103333 
	C2054.475586,996.385559 2050.154053,985.770081 2040.410645,981.160095 
	C2035.533936,978.852722 2032.259766,981.098083 2028.735229,983.972717 
	C1999.295654,1007.984497 1969.942017,1032.101318 1940.516724,1056.130249 
	C1928.385498,1066.036743 1916.373047,1076.090820 1904.088257,1085.808716 
	C1901.736816,1087.668945 1899.433960,1089.659058 1896.793579,1091.064087 
	C1892.203735,1093.506348 1886.658936,1098.028564 1882.337769,1093.571655 
	C1878.160889,1089.263550 1884.369629,1085.443970 1886.655762,1081.769897 
	C1900.787720,1059.058838 1919.095703,1039.506592 1935.198120,1018.280090 
	C1946.456787,1003.438782 1947.422729,989.312988 1939.541138,972.760010 
	C1910.716919,912.222778 1886.314209,849.854309 1863.714478,786.752625 
	C1827.372314,685.280151 1798.068604,581.739319 1772.529053,477.099884 
	C1761.861450,433.392883 1751.770752,389.543030 1742.878418,345.428955 
	C1740.157959,331.933899 1737.264526,330.392822 1725.755371,337.605377 
	C1696.705811,355.810181 1665.872314,371.317230 1639.767822,394.018219 
	C1638.263428,395.326447 1636.578613,396.432007 1634.890259,397.506653 
	C1630.351685,400.395386 1625.961548,400.562408 1622.508423,396.001953 
	C1618.909302,391.248596 1622.059570,387.869873 1625.588623,385.027466 
	C1666.057129,352.432800 1704.675903,317.595520 1747.338013,287.657013 
	C1827.916138,231.110672 1914.580933,187.139435 2008.663574,157.971069 
	C2053.320068,144.126236 2098.813232,133.966858 2145.075928,127.228668 
	C2149.624756,126.566139 2154.364990,126.544807 2158.851562,123.644646 
	C2157.389160,119.075180 2153.508789,117.974907 2149.691895,117.196663 
	C2142.511719,115.732620 2135.293457,114.631783 2127.891113,114.666908 
	C2101.559082,114.791908 2075.185303,113.787315 2048.902100,114.930138 
	C2007.695190,116.721870 1966.483276,118.974350 1925.477661,123.872025 
	C1881.807129,129.087997 1838.113403,134.110992 1795.138672,143.854141 
	C1792.845825,144.373993 1790.514648,144.375824 1787.493896,143.381561 
	C1784.774902,141.535080 1784.308838,139.572418 1785.522095,136.560883 
z" data-index="2" style="visibility: visible;"></path>
<path fill="#FE0000" opacity="1.000000" stroke="none" d="
M1787.573242,142.471954 
	C1808.185669,138.274277 1828.070435,134.308304 1848.163452,131.311447 
	C1886.048096,125.661041 1924.031860,121.051117 1962.186279,117.655899 
	C2017.337036,112.748222 2072.568604,110.962791 2127.908691,112.332260 
	C2134.228271,112.488647 2140.532959,113.245560 2146.852295,113.394592 
	C2152.598389,113.530106 2156.780029,116.878784 2161.260498,119.687431 
	C2163.465088,121.069267 2164.414795,123.177223 2163.696289,125.681610 
	C2162.973389,128.199783 2160.546387,127.672539 2158.692871,127.930809 
	C2132.635010,131.561844 2106.734863,136.037476 2081.031738,141.704803 
	C1956.954468,169.062851 1844.194946,221.331528 1741.187622,295.351776 
	C1706.224243,320.476257 1673.782349,348.662140 1640.724854,376.118256 
	C1635.599121,380.375488 1630.429077,384.586639 1625.140991,388.638428 
	C1622.395386,390.742126 1622.134521,392.713043 1624.485229,395.184631 
	C1626.564819,397.371338 1628.406372,400.016205 1631.860229,397.078583 
	C1634.650146,394.705872 1637.668945,392.601532 1640.448853,390.217834 
	C1667.705444,366.845795 1699.800049,350.892639 1729.949951,331.971191 
	C1738.151489,326.824066 1742.260620,329.228180 1744.276733,338.937561 
	C1768.176880,454.036469 1796.344604,568.061951 1831.108276,680.386353 
	C1862.541992,781.951843 1899.512817,881.440735 1944.543579,977.836304 
	C1950.406982,990.388245 1949.616577,1002.150757 1941.525146,1013.622925 
	C1929.027222,1031.342773 1915.619263,1048.364136 1901.534180,1064.799316 
	C1893.930054,1073.672241 1890.256226,1085.129639 1881.203369,1093.042236 
	C1889.161865,1093.276123 1895.159668,1089.654175 1900.743408,1085.089966 
	C1927.576050,1063.157104 1954.401733,1041.215820 1981.222778,1019.268616 
	C1997.470947,1005.972839 2013.689453,992.640686 2029.955200,979.366516 
	C2035.892212,974.521423 2035.947144,974.562195 2042.614258,979.206543 
	C2045.072144,980.918701 2047.760986,982.428589 2049.841064,984.529175 
	C2056.005127,990.753540 2057.045654,998.144409 2052.723633,1006.245422 
	C2043.631226,1023.287292 2034.319214,1040.212036 2025.086060,1057.178589 
	C2024.449829,1058.347656 2023.880371,1059.608765 2023.009277,1060.585815 
	C2008.105713,1077.302856 1997.270264,1097.020630 1983.269409,1114.399902 
	C1982.642212,1115.178345 1981.989258,1115.942871 1981.434082,1116.771240 
	C1955.340942,1155.710571 1929.637573,1194.878662 1910.509033,1238.191895 
	C1910.418945,1239.663208 1911.895996,1240.029785 1913.003906,1240.601929 
	C1919.680054,1244.048828 1919.850098,1244.115479 1923.432861,1237.399780 
	C1939.736084,1206.839722 1956.538696,1176.596191 1974.690063,1147.054321 
	C1981.138062,1136.560181 1988.101562,1126.628540 1995.332764,1116.758545 
	C2002.214478,1107.365723 2008.443604,1097.486328 2015.487183,1088.222046 
	C2042.840454,1052.244385 2075.407471,1021.239014 2108.818115,991.057739 
	C2155.317139,949.053284 2208.660400,918.052856 2265.813232,893.100098 
	C2288.087402,883.375305 2310.164795,873.199768 2332.345215,863.259827 
	C2338.428467,860.533630 2344.677979,858.466614 2351.297119,857.211853 
	C2371.242676,853.431030 2391.116211,849.268188 2411.018555,845.257690 
	C2412.314697,844.996521 2413.608643,844.703796 2414.918213,844.537659 
	C2416.039307,844.395447 2416.967041,845.031921 2417.035645,846.072449 
	C2417.093018,846.940430 2416.779541,848.205933 2416.162354,848.660583 
	C2415.155273,849.402649 2413.800293,849.784546 2412.535645,850.048828 
	C2360.548584,860.910583 2314.201416,884.737061 2269.416260,912.190308 
	C2208.713867,949.400879 2151.718262,991.511108 2100.643799,1041.245483 
	C2050.035645,1090.525757 2005.595703,1144.791138 1970.685181,1206.446167 
	C1960.954590,1223.631348 1953.694214,1242.049683 1950.134399,1261.439819 
	C1944.786133,1290.572021 1934.532104,1317.807373 1921.559204,1344.219604 
	C1882.502930,1423.736694 1843.527954,1503.301880 1801.820801,1581.471313 
	C1772.718994,1636.015503 1738.621216,1687.223999 1697.390259,1733.540771 
	C1655.647095,1780.433350 1604.329346,1812.653687 1545.801392,1834.178589 
	C1516.984985,1844.776367 1487.381470,1852.486572 1457.422363,1858.983398 
	C1454.446411,1859.628906 1451.508179,1860.116455 1448.521484,1859.582764 
	C1427.395996,1855.808228 1406.234741,1854.978149 1384.917603,1858.041138 
	C1365.772705,1860.791870 1346.940674,1858.424561 1328.800293,1852.215820 
	C1309.637085,1845.656982 1290.703979,1838.457031 1272.184204,1830.097778 
	C1253.368042,1821.604736 1237.035767,1809.771484 1221.953003,1796.038574 
	C1205.693237,1781.233643 1189.750244,1766.079956 1173.728271,1751.015381 
	C1171.806763,1749.208496 1169.863647,1747.227051 1168.593262,1744.955811 
	C1155.564453,1721.662964 1147.070068,1696.900269 1146.360962,1670.033569 
	C1145.449707,1635.508423 1157.321289,1605.440308 1179.609009,1579.314575 
	C1192.258057,1564.487427 1207.502441,1552.661987 1223.324463,1541.473267 
	C1270.329590,1508.233032 1321.075317,1483.269775 1377.736206,1471.291992 
	C1415.894653,1463.225708 1454.335938,1462.200806 1493.037476,1466.302856 
	C1505.793091,1467.654907 1513.866333,1473.394409 1516.614502,1486.575073 
	C1519.123047,1498.606323 1522.413574,1510.508667 1525.995850,1522.273926 
	C1531.326172,1539.780396 1540.564087,1554.770142 1554.072876,1567.554810 
	C1586.077637,1597.843628 1620.373901,1625.328491 1654.967773,1652.509888 
	C1660.031860,1656.489014 1665.339111,1657.279175 1670.885498,1655.739014 
	C1688.824585,1650.756714 1706.928955,1646.167236 1724.073120,1638.755615 
	C1733.497437,1634.681274 1740.653931,1627.802490 1745.709229,1618.758789 
	C1771.061523,1573.404785 1796.340210,1528.011597 1820.718994,1482.122314 
	C1826.130005,1471.936890 1826.473755,1461.185913 1825.259033,1449.684448 
	C1821.418945,1449.921509 1820.521851,1453.219727 1818.932495,1455.393921 
	C1795.339722,1487.668945 1771.858643,1520.025757 1748.265259,1552.300415 
	C1745.574463,1555.981445 1743.455444,1560.253662 1739.213867,1563.068481 
	C1725.631470,1548.309937 1713.215820,1533.154663 1703.129639,1516.202759 
	C1700.562866,1511.888794 1698.633911,1507.270630 1698.035645,1502.215698 
	C1693.965210,1467.819458 1682.658936,1435.475586 1669.693359,1403.665771 
	C1655.116577,1367.902588 1640.628418,1332.128296 1629.549438,1295.072876 
	C1626.021606,1283.273071 1619.569458,1278.740234 1605.458862,1278.288452 
	C1589.732422,1277.784790 1574.358276,1275.095947 1559.048828,1271.810425 
	C1556.511108,1271.265869 1554.045776,1270.384399 1551.630249,1268.545776 
	C1565.182007,1266.436768 1578.769653,1264.534180 1592.279419,1262.183716 
	C1657.231445,1250.883911 1716.992676,1226.885620 1770.942871,1188.777588 
	C1805.558350,1164.326782 1837.242065,1136.209595 1870.073975,1109.527710 
	C1873.112061,1107.058716 1875.413208,1104.483398 1873.201172,1099.813110 
	C1865.257812,1101.537964 1858.584473,1105.741333 1852.253174,1110.474365 
	C1838.911255,1120.448242 1825.753296,1130.667847 1812.411377,1140.641357 
	C1803.864868,1147.030396 1794.925293,1152.865723 1785.377075,1157.661865 
	C1768.515991,1166.131470 1757.804810,1163.638306 1746.453735,1148.246704 
	C1741.522339,1141.560059 1737.092285,1134.470825 1732.831543,1127.327637 
	C1701.425171,1074.673706 1671.388428,1021.242676 1644.551880,966.109314 
	C1631.005371,938.279419 1618.958252,909.719543 1606.239746,881.486694 
	C1605.282715,879.362000 1604.524658,877.134033 1603.413696,875.096069 
	C1602.241699,872.946289 1601.920898,869.464539 1598.084106,870.508301 
	C1595.158691,871.304199 1592.678345,872.439880 1591.891846,876.106445 
	C1590.022339,884.821594 1590.792603,893.333801 1593.115723,901.768677 
	C1595.515869,910.482544 1599.480591,918.545471 1603.716309,926.503540 
	C1610.283203,938.841675 1617.348145,950.975586 1621.306641,964.509033 
	C1622.791260,969.585083 1624.592163,974.676941 1623.851440,980.177917 
	C1620.905518,980.855896 1620.760132,978.164551 1619.908325,976.812683 
	C1595.390747,937.901917 1570.176025,899.430420 1542.677856,862.574951 
	C1523.231201,836.510803 1511.047852,807.157837 1500.218140,777.019531 
	C1495.830811,764.809998 1490.488159,752.929932 1487.219238,739.555603 
	C1487.207642,738.791687 1487.392212,737.940002 1487.816406,737.840454 
	C1496.689331,741.909485 1502.957886,749.016479 1510.571045,754.318054 
	C1516.306885,758.312317 1521.892334,762.521851 1527.572144,766.597412 
	C1530.848633,768.948425 1534.453247,770.773132 1538.374390,771.601013 
	C1541.951904,772.356323 1546.474609,773.172302 1548.889404,770.525818 
	C1551.556763,767.602295 1547.768677,764.485046 1546.296631,761.737122 
	C1519.734131,712.152527 1493.060791,662.627258 1466.478638,613.053223 
	C1462.936523,606.447327 1458.730347,600.752991 1451.556519,597.609802 
	C1439.395020,592.281067 1436.311279,583.955322 1442.648682,569.601135 
	C1444.112671,566.285461 1446.944702,563.615356 1447.467773,559.831726 
	C1447.551880,559.223389 1447.264038,558.563721 1447.131348,557.834900 
	C1444.199829,558.073730 1442.890015,560.540588 1441.086060,562.262756 
	C1418.450439,583.871582 1396.733765,606.443542 1372.677002,626.557007 
	C1312.744873,676.665405 1244.328003,708.020447 1167.011230,719.445190 
	C1138.455322,723.664734 1109.821655,723.206787 1081.744263,715.846130 
	C1059.278564,709.956604 1043.245728,696.474976 1037.020874,673.320312 
	C1034.215088,662.883850 1034.556641,652.121887 1036.652832,641.610474 
	C1040.315186,623.244751 1046.430542,605.793396 1055.917969,589.441895 
	C1073.968750,558.332092 1093.798340,528.331543 1112.689453,496.911560 
	C1119.471436,482.471558 1132.720215,474.342804 1141.438965,462.359558 
	C1144.707153,457.867645 1148.625000,453.845306 1151.490234,448.191223 
	C1151.887207,447.615356 1151.913818,447.869965 1151.786133,447.862305 
	C1153.209106,447.222656 1154.601562,446.400574 1155.582764,444.223877 
	C1155.828735,443.658112 1155.968262,443.777191 1155.906860,443.845276 
	C1158.421265,442.684753 1160.694092,441.151581 1161.779663,437.550812 
	C1161.986816,436.885101 1161.944702,437.002350 1161.903931,436.955170 
	C1167.650391,429.958038 1176.911255,429.025604 1183.972290,423.934998 
	C1209.900513,405.242615 1234.817627,385.197296 1261.170898,367.070801 
	C1299.627808,340.619202 1339.768311,316.990112 1380.713989,294.701019 
	C1446.032715,259.144287 1513.955811,229.280426 1583.583740,203.295456 
	C1646.015503,179.996078 1709.646118,160.441452 1774.144409,143.710724 
	C1778.297607,142.633392 1782.481812,141.117371 1787.573242,142.471954 
z" data-index="3" style="visibility: visible;"></path>
<path fill="#FD0000" opacity="1.000000" stroke="none" d="
M2465.383789,1311.549805 
	C2469.501465,1312.013062 2472.163818,1313.276489 2474.500244,1316.163086 
	C2486.861328,1331.435303 2499.310791,1346.640381 2512.000732,1361.639038 
	C2515.130615,1365.338501 2514.703369,1368.356934 2513.028320,1372.416626 
	C2484.955811,1440.448486 2454.595215,1507.333008 2418.433594,1571.576050 
	C2375.272461,1648.253906 2329.735107,1723.358276 2276.851318,1793.781982 
	C2240.022217,1842.826172 2201.269531,1890.284790 2156.555420,1932.495728 
	C2130.180176,1957.394775 2100.807617,1977.809570 2066.470703,1990.458252 
	C2053.312500,1995.305054 2039.721436,1998.507812 2026.081055,2001.517822 
	C2020.170776,2002.822021 2014.129272,2002.328735 2008.191772,2001.288818 
	C1981.657227,1996.640869 1955.116577,1992.023071 1928.618530,1987.173950 
	C1924.203491,1986.366089 1920.099854,1985.777954 1915.312256,1988.686523 
	C1912.016357,1988.640625 1909.534912,1988.225830 1906.759521,1987.645264 
	C1884.105713,1978.885620 1861.813110,1970.072021 1838.264404,1965.123657 
	C1828.454956,1963.062378 1818.400024,1963.208130 1808.477661,1962.137695 
	C1807.156616,1961.994995 1805.765015,1962.272583 1804.488281,1961.987427 
	C1784.595215,1957.544067 1766.432251,1962.838623 1748.907471,1971.772095 
	C1744.255127,1974.143799 1739.591064,1974.873901 1734.240234,1971.996826 
	C1735.670654,1967.905518 1737.216919,1963.943359 1738.449829,1959.886108 
	C1753.726562,1909.619629 1742.605469,1865.328003 1708.104980,1826.368652 
	C1706.781494,1824.874268 1705.453369,1823.298096 1703.844971,1822.158813 
	C1700.004639,1819.439209 1700.323730,1816.704102 1702.550171,1812.892822 
	C1732.160645,1762.206299 1756.041748,1708.615723 1781.857422,1656.004883 
	C1804.471924,1609.917725 1828.223633,1564.474609 1857.923950,1522.427856 
	C1864.610962,1512.961182 1871.213135,1503.407104 1879.341553,1494.236816 
	C1882.548828,1501.395508 1883.004639,1508.389771 1883.795288,1515.207886 
	C1884.361084,1520.086670 1881.185425,1523.920166 1878.336548,1527.693848 
	C1863.227661,1547.706177 1849.728760,1568.682617 1840.941528,1592.336792 
	C1831.997559,1616.412354 1827.800781,1641.151123 1831.353638,1666.852051 
	C1831.670654,1669.145508 1832.188721,1671.428467 1832.841431,1673.649292 
	C1833.085815,1674.480469 1833.981079,1675.120239 1834.870850,1676.201294 
	C1840.500732,1671.325684 1845.878052,1666.423584 1851.527588,1661.858276 
	C1855.617920,1658.552856 1859.912842,1654.259521 1865.765503,1657.017212 
	C1871.532837,1659.734497 1874.728271,1665.124878 1875.529785,1671.270386 
	C1876.301147,1677.184692 1875.893066,1683.247803 1876.106689,1689.241821 
	C1876.254517,1693.391479 1873.195435,1695.861450 1871.142822,1698.760010 
	C1854.096680,1722.831055 1840.066162,1748.470093 1830.993286,1776.608765 
	C1822.373413,1803.342651 1818.532471,1830.502930 1826.373291,1858.153198 
	C1828.465332,1865.531128 1830.607544,1872.845093 1831.846924,1881.224854 
	C1834.027344,1884.063599 1834.397339,1886.663330 1834.707397,1889.353027 
	C1834.956055,1891.509766 1834.324097,1894.598389 1837.490723,1894.907715 
	C1840.123535,1895.164795 1841.353760,1892.595947 1842.503296,1890.601685 
	C1846.989014,1882.819580 1850.475708,1874.513184 1855.375732,1866.928223 
	C1871.329468,1842.233154 1893.685303,1827.695923 1922.860352,1823.715820 
	C1937.366211,1821.736938 1951.861328,1819.675659 1966.383789,1817.824463 
	C1980.831543,1815.982544 1989.192261,1820.460449 1995.568237,1833.230713 
	C2004.289795,1850.698975 2018.914795,1859.538818 2038.438843,1856.882812 
	C2085.391602,1850.495361 2131.381592,1841.031006 2174.359131,1819.216187 
	C2200.047607,1806.177002 2216.491699,1785.211060 2232.151855,1762.767578 
	C2252.921143,1733.001953 2271.366699,1701.733276 2291.433594,1670.710938 
	C2292.370117,1669.494507 2293.528320,1669.478149 2293.693604,1668.481812 
	C2293.729004,1668.269043 2293.414062,1668.131714 2293.119141,1668.131470 
	C2291.785889,1668.130493 2293.590332,1668.032104 2292.272461,1669.555420 
	C2262.164062,1689.195923 2233.009521,1709.176147 2201.867188,1725.854004 
	C2181.525635,1736.747559 2159.394287,1741.329956 2136.307129,1740.625732 
	C2116.045166,1740.007690 2107.948730,1728.148926 2115.108154,1709.429565 
	C2120.065674,1696.467896 2127.761963,1686.023682 2139.723389,1677.777344 
	C2154.820312,1667.369141 2170.618652,1660.401367 2188.485352,1656.311401 
	C2217.984375,1649.558350 2247.621582,1642.881104 2274.847168,1628.661011 
	C2290.736084,1620.362305 2305.278076,1610.439331 2315.497803,1595.577881 
	C2341.369873,1557.954468 2365.568359,1519.308594 2384.064697,1477.392090 
	C2386.482178,1471.913574 2388.300049,1466.173828 2389.776123,1460.351929 
	C2390.099854,1459.074585 2390.205078,1457.757080 2388.596680,1455.823486 
	C2382.671631,1458.794189 2379.015381,1464.286499 2374.901123,1469.277710 
	C2357.903076,1489.899658 2331.980713,1497.709351 2309.641846,1488.962769 
	C2291.934326,1482.029541 2285.047607,1468.157593 2289.729980,1449.743286 
	C2293.013428,1436.831665 2300.615234,1426.660400 2310.726562,1418.894043 
	C2321.752686,1410.425049 2327.999268,1399.187500 2334.487793,1387.421753 
	C2362.684570,1336.294189 2407.707275,1313.257324 2465.383789,1311.549805 
z" data-index="4" style="visibility: visible;"></path>
<path fill="#1D0A0A" opacity="1.000000" stroke="none" d="
M1787.721191,141.755264 
	C1770.073364,147.301132 1751.872314,152.417358 1733.663818,157.507477 
	C1635.077026,185.067123 1539.203003,219.879684 1446.773071,264.065338 
	C1385.986694,293.123871 1327.392822,325.999847 1271.255127,363.231323 
	C1242.369873,382.388489 1215.436768,404.251587 1187.343262,424.513489 
	C1179.927979,429.861572 1172.143188,434.018219 1162.635498,436.708405 
	C1161.797852,430.910126 1165.732300,427.265869 1169.669800,423.614685 
	C1214.935059,381.641113 1263.707397,344.278778 1316.158203,311.689301 
	C1393.940796,263.360168 1476.982544,226.545914 1563.798340,197.883484 
	C1630.741333,175.782089 1698.934814,157.938080 1766.533325,138.069550 
	C1772.339355,136.363098 1778.307495,135.982010 1785.128174,135.680359 
	C1786.043945,137.757004 1785.808472,139.708206 1787.721191,141.755264 
z" data-index="5" style="visibility: visible;"></path>
<path fill="#2E1A1A" opacity="1.000000" stroke="none" d="
M2777.539551,771.628662 
	C2771.631836,769.197144 2770.166504,772.757690 2768.740234,777.626465 
	C2763.650146,777.692932 2762.356445,774.794861 2764.042480,771.214417 
	C2767.804443,763.225891 2769.462891,754.281433 2775.479492,746.536377 
	C2776.521973,744.223450 2777.112793,742.483521 2777.562744,740.707764 
	C2778.379883,737.481995 2776.919189,736.037415 2773.016113,736.041870 
	C2770.991211,733.965393 2770.094482,731.785522 2771.852783,729.581970 
	C2778.400146,721.376770 2785.008789,713.220642 2792.438721,705.472229 
	C2794.584717,729.077515 2790.288086,750.977722 2777.539551,771.628662 
z" data-index="6" style="visibility: visible;"></path>
<path fill="#411A1A" opacity="1.000000" stroke="none" d="
M1151.158447,447.673523 
	C1152.591797,452.216492 1150.971069,455.733948 1147.744019,459.162628 
	C1136.382324,471.234406 1125.320435,483.588257 1113.562012,496.044098 
	C1111.281738,495.601379 1109.584229,494.949646 1107.219482,494.160400 
	C1119.197876,479.647003 1131.853516,465.280029 1144.476318,450.884155 
	C1146.088257,449.045654 1147.983643,447.911438 1151.158447,447.673523 
z" data-index="7" style="visibility: visible;"></path>
<path fill="#810A0A" opacity="1.000000" stroke="none" d="
M1161.381104,437.225037 
	C1161.594971,439.933350 1162.854248,444.037079 1156.670654,443.911896 
	C1156.265259,440.847168 1159.215454,439.745850 1161.381104,437.225037 
z" data-index="8" style="visibility: visible;"></path>
<path fill="#420F0F" opacity="1.000000" stroke="none" d="
M1155.210938,443.778412 
	C1156.142456,445.816528 1156.277954,447.865265 1152.427612,447.894531 
	C1152.636597,446.536011 1153.614746,445.217346 1155.210938,443.778412 
z" data-index="9" style="visibility: visible;"></path>
<path fill="#F9F9F9" opacity="1.000000" stroke="none" d="
M1840.718872,1874.826416 
	C1826.306274,1848.689453 1826.289307,1821.219849 1833.094238,1793.282593 
	C1841.578491,1758.450439 1858.778809,1727.884888 1879.090454,1698.692261 
	C1890.872192,1681.759155 1893.646606,1662.949707 1885.740479,1643.301514 
	C1882.869141,1636.165649 1881.089844,1635.207520 1873.539673,1636.550903 
	C1868.958496,1637.365967 1864.469360,1638.683838 1859.905762,1639.613892 
	C1850.445068,1641.542114 1849.714233,1640.788330 1851.072754,1630.880249 
	C1851.934814,1624.593994 1853.508545,1618.513184 1855.848145,1612.588867 
	C1859.780762,1602.631470 1865.262085,1593.515259 1870.680786,1584.352295 
	C1885.770630,1558.836060 1899.977661,1532.904175 1909.000488,1504.466553 
	C1913.244141,1491.091797 1914.823853,1477.151855 1918.033325,1463.559814 
	C1929.640747,1414.406006 1950.246582,1369.911377 1985.514771,1333.002441 
	C1988.234741,1330.156006 1990.569702,1326.722168 1995.245850,1325.566772 
	C1996.072998,1329.923218 1993.426880,1333.027588 1991.726074,1336.330688 
	C1983.167236,1352.953369 1975.579224,1369.866699 1973.117798,1388.699951 
	C1972.155273,1396.063110 1972.118164,1403.270996 1973.337769,1410.557617 
	C1975.824097,1425.410156 1979.932495,1439.779785 1986.802856,1453.200806 
	C1999.975830,1478.933228 2025.388550,1488.515137 2052.618652,1478.428589 
	C2065.501221,1473.656616 2075.524170,1465.163330 2084.375732,1454.967163 
	C2103.910400,1432.465088 2115.044922,1406.145752 2119.924561,1376.986450 
	C2126.036377,1340.464111 2129.614746,1303.773926 2127.740234,1266.662354 
	C2127.237061,1256.698120 2127.723389,1246.677246 2127.926758,1236.685791 
	C2128.152344,1225.598389 2130.421631,1214.983032 2134.678223,1204.649536 
	C2156.216064,1152.361938 2190.465088,1111.440918 2240.358643,1083.838745 
	C2280.621826,1061.564575 2319.351074,1036.909668 2353.944092,1006.250366 
	C2372.700684,989.626526 2389.778809,971.463501 2404.987549,951.542053 
	C2405.768311,950.519470 2406.636230,949.563477 2408.174316,947.729126 
	C2411.511963,955.395447 2410.855713,962.649841 2409.487549,969.388550 
	C2404.997314,991.505981 2394.269043,1009.678772 2374.180664,1021.390930 
	C2321.080811,1052.350098 2292.929932,1099.328247 2285.594971,1159.624146 
	C2282.929199,1181.537964 2281.316162,1203.401367 2289.555908,1225.420898 
	C2291.800537,1227.664795 2292.795898,1229.814453 2293.023193,1232.127808 
	C2295.043213,1252.693481 2308.328125,1266.647827 2321.894043,1281.225098 
	C2325.463623,1284.931885 2328.170654,1288.603149 2333.302734,1290.343140 
	C2334.313477,1290.880981 2334.705078,1291.122437 2335.639648,1291.789795 
	C2349.352295,1301.987915 2361.281250,1293.405396 2373.190674,1289.226318 
	C2382.757324,1285.869263 2386.266113,1277.855347 2385.321289,1267.198486 
	C2385.294922,1265.076416 2385.229248,1263.661011 2384.919922,1261.536621 
	C2384.583740,1259.850464 2384.375488,1258.881104 2383.988281,1257.160767 
	C2380.964600,1233.762939 2388.163818,1213.394287 2398.050049,1193.637085 
	C2399.675537,1190.389038 2401.188232,1187.083252 2403.337158,1183.244385 
	C2413.952148,1168.398315 2425.736572,1155.483521 2437.221924,1142.339111 
	C2441.352783,1137.611328 2445.616699,1133.061279 2449.367676,1127.107788 
	C2462.296875,1116.879028 2476.108154,1109.701660 2490.721680,1103.986084 
	C2495.066162,1102.286865 2499.557373,1100.981812 2504.151855,1100.268677 
	C2508.263184,1099.630615 2514.253662,1097.878174 2515.309570,1102.928223 
	C2516.179199,1107.088135 2509.956055,1108.271240 2506.361084,1108.934814 
	C2493.094238,1111.383667 2485.900879,1119.821411 2481.114258,1131.722412 
	C2473.556396,1150.514404 2463.635010,1168.300415 2457.130859,1187.563110 
	C2455.533203,1192.295166 2453.866943,1196.989990 2453.196289,1201.956787 
	C2450.495850,1221.958008 2460.555908,1235.775146 2480.487549,1238.863770 
	C2500.630859,1241.985107 2519.472900,1238.501709 2536.935059,1226.133301 
	C2542.010254,1222.303345 2544.927734,1216.859863 2551.535645,1215.493286 
	C2564.513916,1212.881836 2574.807129,1206.716797 2584.434814,1198.560425 
	C2625.507324,1163.764404 2663.752930,1126.353882 2695.176758,1082.378052 
	C2704.897949,1068.773560 2712.910645,1054.490234 2718.658203,1038.600342 
	C2740.068604,979.407898 2782.074707,940.563599 2840.149902,918.125305 
	C2856.323242,911.876465 2872.933838,907.107788 2889.813477,903.196899 
	C2893.777588,902.278442 2897.676514,901.882507 2901.719971,902.568542 
	C2902.484863,905.863159 2899.396240,906.280518 2897.779541,907.411682 
	C2878.950439,920.584656 2860.098145,933.728149 2841.096191,946.650269 
	C2780.431152,987.904114 2738.809082,1043.988892 2712.010010,1111.723145 
	C2701.463623,1138.379150 2693.086182,1165.703735 2685.972168,1193.449951 
	C2677.857422,1225.098511 2664.905273,1254.476196 2644.079590,1279.947388 
	C2620.230713,1309.116089 2590.018066,1327.875977 2552.806152,1335.001587 
	C2546.547852,1336.199707 2540.248779,1336.617554 2533.917480,1336.652344 
	C2515.974854,1336.750854 2501.521729,1330.078247 2491.729004,1314.572998 
	C2485.518311,1304.739380 2476.977539,1300.495728 2464.690186,1303.801880 
	C2460.291016,1307.422363 2455.537109,1307.828613 2450.995850,1308.768677 
	C2434.682373,1312.145508 2418.259033,1315.044189 2402.234619,1319.691650 
	C2353.038574,1333.959229 2316.653076,1363.039551 2296.370361,1410.945679 
	C2291.701172,1421.973511 2285.511719,1432.309082 2281.859375,1443.836304 
	C2269.413330,1483.120361 2292.941650,1505.016602 2326.057861,1509.122559 
	C2331.664551,1509.817627 2337.322998,1509.920898 2342.865723,1511.302002 
	C2348.605469,1512.732422 2349.926514,1516.023071 2347.012695,1520.832153 
	C2334.055176,1542.215332 2320.948730,1563.371948 2302.048096,1580.426392 
	C2266.304688,1612.678467 2224.471191,1633.212158 2179.970215,1650.876831 
	C2151.938477,1662.004150 2127.080811,1681.299561 2106.287109,1704.297363 
	C2102.014648,1709.022583 2099.320557,1714.855469 2096.832764,1720.698242 
	C2093.741943,1727.956665 2095.311768,1734.640625 2102.382568,1737.710815 
	C2121.314453,1745.931519 2140.522461,1753.520264 2162.032471,1748.751465 
	C2180.250488,1744.712402 2198.392822,1740.310181 2216.746094,1736.889893 
	C2220.342773,1736.219604 2223.912842,1735.223267 2228.354004,1736.357300 
	C2229.507080,1736.934570 2229.927979,1737.243408 2230.700684,1738.254761 
	C2231.372559,1740.658081 2231.184326,1742.365479 2230.282959,1743.781494 
	C2217.245850,1764.260498 2204.766357,1785.157471 2184.712158,1800.004395 
	C2175.434326,1806.873047 2165.366455,1811.802368 2154.029297,1813.759399 
	C2137.427002,1816.625244 2122.097412,1822.827637 2107.210205,1830.458374 
	C2091.731689,1838.391968 2075.528809,1844.282104 2058.343506,1847.413208 
	C2035.108643,1851.646729 2014.413086,1843.439331 2003.165039,1822.848511 
	C1997.455200,1812.395630 1991.163330,1809.047852 1979.631104,1810.534790 
	C1954.629761,1813.758179 1929.133179,1812.552124 1904.458618,1819.050049 
	C1881.364990,1825.131836 1864.073975,1838.570068 1851.913940,1859.026245 
	C1848.718994,1864.401001 1846.570557,1870.546265 1840.718872,1874.826416 
z" data-index="10" style="visibility: visible;"></path>
<path fill="#FD0000" opacity="1.000000" stroke="none" d="
M1933.702637,656.376709 
	C1954.858398,741.189087 1979.377197,824.082947 2011.797974,904.481140 
	C2015.869629,914.578308 2014.448853,922.954468 2006.299683,930.656372 
	C1992.493774,943.704651 1978.038818,956.005188 1963.853149,968.615723 
	C1963.155884,969.235535 1962.123779,969.478516 1960.531738,970.238831 
	C1955.746704,959.158813 1951.057739,948.230225 1946.312866,937.325989 
	C1912.972778,860.706665 1882.017334,783.151794 1854.942383,704.080322 
	C1828.071045,625.603271 1806.205444,545.789612 1790.463623,464.301361 
	C1780.887207,414.728180 1777.724976,364.670624 1777.366089,314.320129 
	C1777.289062,303.513550 1782.844727,295.955872 1790.735596,289.928192 
	C1797.328003,284.892487 1804.481201,280.543060 1811.621094,276.283661 
	C1821.052002,270.657440 1830.671631,265.341705 1840.289429,260.036316 
	C1846.091309,256.835968 1846.485596,257.022095 1847.896484,263.702209 
	C1852.020264,283.226410 1856.027710,302.775177 1860.076782,322.315125 
	C1878.301025,410.257721 1896.379761,498.232300 1916.711670,585.720703 
	C1922.132568,609.046875 1927.907593,632.290833 1933.702637,656.376709 
z" data-index="11" style="visibility: visible;"></path>
<path fill="#FD0000" opacity="1.000000" stroke="none" d="
M2552.661133,1214.931885 
	C2547.821045,1218.227539 2544.635254,1222.162354 2540.406982,1225.875977 
	C2525.870361,1232.057617 2511.441406,1236.172363 2496.260010,1233.684814 
	C2476.864746,1230.506592 2464.624268,1213.907349 2467.906738,1194.618042 
	C2473.840332,1159.750122 2488.779785,1129.633545 2517.105469,1107.207886 
	C2520.490723,1104.527588 2523.937012,1101.910034 2526.955811,1098.800415 
	C2527.653809,1098.081299 2528.217773,1097.249512 2527.641602,1094.644897 
	C2513.394287,1096.847168 2498.887939,1098.406006 2485.337891,1104.564819 
	C2478.373291,1107.730591 2471.489502,1111.051392 2463.404297,1113.379028 
	C2461.332275,1114.007690 2459.937744,1114.338623 2457.945068,1115.088257 
	C2456.885742,1115.561768 2456.465332,1115.756836 2455.417480,1116.248657 
	C2444.604492,1121.181641 2435.927490,1127.668457 2429.371582,1136.877930 
	C2419.750488,1150.393433 2408.437988,1162.765137 2401.294434,1178.812256 
	C2395.489014,1195.508423 2388.028076,1210.803467 2383.410645,1227.186890 
	C2381.673828,1233.349243 2380.838867,1239.532837 2380.145508,1246.586426 
	C2379.705566,1248.856812 2379.271484,1250.341675 2379.093262,1252.668823 
	C2378.854492,1257.745239 2378.867920,1262.048340 2378.136230,1267.129150 
	C2370.896484,1287.959839 2354.200684,1297.759766 2334.398438,1292.663574 
	C2333.680908,1292.226807 2333.868164,1292.190674 2333.854248,1292.284912 
	C2329.609375,1289.411621 2325.924072,1285.780518 2321.421875,1282.011963 
	C2315.348877,1272.383179 2307.188232,1265.357910 2301.214844,1256.521851 
	C2295.233643,1247.674316 2293.017090,1238.018921 2293.013672,1227.012939 
	C2293.429932,1225.315674 2293.477051,1224.269653 2293.401123,1222.446533 
	C2293.131836,1220.900146 2293.020752,1220.125854 2292.707031,1218.810547 
	C2288.464111,1203.402954 2287.881104,1187.684082 2293.711670,1174.089478 
	C2302.270508,1154.133911 2311.951660,1134.150635 2330.625244,1120.589844 
	C2371.860352,1090.644775 2416.826172,1067.877441 2464.521484,1050.361938 
	C2511.142090,1033.241211 2559.302734,1021.782715 2607.967285,1012.296814 
	C2609.565918,1011.985168 2611.242676,1012.074829 2612.637695,1011.992004 
	C2614.968018,1013.691650 2614.177734,1015.795593 2613.878418,1017.653809 
	C2609.279785,1046.206299 2604.966797,1074.810913 2599.883057,1103.277588 
	C2594.718018,1132.201050 2586.611084,1160.233398 2572.052246,1186.081543 
	C2566.476562,1195.980957 2559.370850,1204.796265 2552.661133,1214.931885 
z" data-index="12" style="visibility: visible;"></path>
<path fill="#190808" opacity="1.000000" stroke="none" d="
M2229.876709,1737.387939 
	C2217.135254,1738.067261 2205.487061,1742.277100 2193.472168,1744.552734 
	C2181.053711,1746.904785 2168.744385,1749.868652 2156.450195,1752.825317 
	C2151.773926,1753.949829 2147.395996,1753.964355 2142.711670,1752.717041 
	C2133.400635,1750.237915 2123.925537,1748.381470 2114.574707,1746.041992 
	C2108.405273,1744.498535 2102.677246,1741.854370 2097.552246,1737.995605 
	C2092.739746,1734.372559 2091.200684,1729.746582 2092.815674,1723.922241 
	C2095.085205,1715.736938 2099.307861,1708.586792 2104.629150,1702.132202 
	C2111.633301,1693.636108 2119.378174,1685.938477 2128.935303,1680.143555 
	C2140.034180,1673.413330 2150.933105,1666.347900 2160.542480,1657.496582 
	C2165.781982,1652.670044 2172.076416,1649.868408 2178.843506,1647.697266 
	C2223.449219,1633.387451 2263.868164,1611.655762 2298.616455,1579.870117 
	C2309.979004,1569.476196 2320.374512,1558.311646 2328.620361,1545.251343 
	C2334.975098,1535.186279 2341.313721,1525.111084 2348.214111,1514.161011 
	C2340.885742,1513.431519 2334.686279,1512.643677 2328.461914,1512.240112 
	C2321.416748,1511.783203 2314.644287,1510.226685 2308.043945,1507.861206 
	C2284.096680,1499.278442 2269.774414,1476.803711 2277.106445,1452.517212 
	C2288.497559,1414.785645 2304.077637,1378.664673 2335.393311,1352.113525 
	C2357.655029,1333.239014 2383.023438,1320.581665 2411.527588,1314.374023 
	C2428.426514,1310.693848 2445.410645,1307.404663 2463.177490,1304.031250 
	C2464.619141,1306.298340 2465.239502,1308.473633 2465.924805,1311.329712 
	C2457.776855,1313.264526 2449.544922,1314.404175 2441.354492,1315.791260 
	C2389.978516,1324.491821 2352.666992,1351.925171 2330.959473,1399.571289 
	C2327.625732,1406.888916 2323.094971,1412.329468 2316.656006,1416.913574 
	C2303.785400,1426.076172 2294.391357,1437.826782 2291.467041,1453.904663 
	C2288.777100,1468.693970 2294.792480,1480.426025 2308.761230,1486.016479 
	C2327.675781,1493.586426 2345.399902,1490.686890 2361.420654,1478.352173 
	C2366.130615,1474.725708 2370.115479,1470.121826 2374.245850,1465.787842 
	C2378.150879,1461.690063 2381.769775,1457.320679 2385.598633,1453.148071 
	C2387.129150,1451.480103 2388.575439,1449.445435 2391.470215,1451.035400 
	C2394.413086,1452.651367 2394.790527,1454.951904 2393.730713,1457.774170 
	C2388.470459,1471.779785 2384.457275,1486.264526 2377.166016,1499.483398 
	C2361.721436,1527.484985 2344.895020,1554.660034 2328.467041,1582.081665 
	C2310.182861,1612.602417 2283.166016,1631.100220 2250.233398,1642.168213 
	C2223.712158,1651.081421 2196.536133,1657.594360 2169.306152,1663.881470 
	C2167.040039,1664.404785 2164.677979,1664.503052 2162.666992,1665.853760 
	C2151.883789,1673.096191 2139.924072,1679.101929 2130.651123,1687.930420 
	C2121.579834,1696.567261 2116.032471,1708.592163 2114.540771,1721.484985 
	C2113.785156,1728.015625 2117.683350,1732.912842 2123.737793,1735.571411 
	C2128.048584,1737.464478 2132.656738,1738.048096 2137.394287,1738.001953 
	C2161.759766,1737.765015 2184.732910,1732.855835 2206.265137,1720.634644 
	C2231.496094,1706.313965 2255.262695,1689.712769 2280.121826,1674.842041 
	C2284.120117,1672.450439 2288.178467,1670.159790 2292.903809,1667.700439 
	C2293.598633,1667.578491 2294.516846,1667.771484 2294.607422,1668.231689 
	C2284.374023,1687.693726 2272.287842,1705.622681 2260.859375,1723.945435 
	C2246.771729,1746.531372 2231.933594,1768.613037 2215.653320,1789.732544 
	C2206.279297,1801.892822 2194.734131,1811.042725 2181.360107,1818.138062 
	C2150.910156,1834.292480 2119.020996,1846.267090 2084.846924,1851.899902 
	C2070.427979,1854.276489 2056.202148,1857.760742 2041.603394,1859.155884 
	C2031.128906,1860.156982 2021.020996,1859.389771 2011.422485,1854.693115 
	C2003.388428,1850.761963 1997.349243,1845.441528 1994.177979,1836.463989 
	C1989.589355,1823.473633 1982.428955,1818.996826 1968.941772,1820.438110 
	C1952.426758,1822.203003 1935.981445,1824.696289 1919.554932,1827.196533 
	C1888.497437,1831.923584 1867.076294,1849.945801 1852.293335,1876.785889 
	C1849.410645,1882.019531 1847.024170,1887.530151 1844.499268,1892.955322 
	C1843.517822,1895.063721 1842.775391,1897.129395 1840.483276,1898.407104 
	C1835.457397,1901.208496 1833.152954,1900.329956 1832.461426,1894.724976 
	C1832.014038,1891.099854 1832.001099,1887.421143 1831.929199,1882.881836 
	C1833.625366,1881.997925 1835.187744,1881.945801 1836.745728,1882.008789 
	C1841.451904,1882.198975 1842.162598,1880.052979 1840.054199,1875.616943 
	C1845.705933,1865.048096 1850.610840,1854.607178 1857.726318,1845.527222 
	C1872.055786,1827.241333 1891.625854,1818.228394 1913.879883,1814.007446 
	C1935.233765,1809.956909 1956.968018,1810.113281 1978.507080,1808.114746 
	C1984.440186,1807.564209 1991.523193,1804.937256 1996.000977,1807.263184 
	C2000.435547,1809.566528 2002.115234,1817.000854 2005.233398,1822.042236 
	C2017.079834,1841.195190 2034.282837,1848.524658 2056.357666,1844.999512 
	C2072.950928,1842.349854 2088.577637,1836.656982 2103.540283,1829.288696 
	C2120.009766,1821.178467 2136.556152,1813.880127 2154.958008,1810.893677 
	C2172.416504,1808.060181 2186.044922,1797.812622 2197.684082,1784.900146 
	C2210.229004,1770.982666 2219.922852,1755.009766 2230.079102,1738.717773 
	C2230.010254,1738.010010 2230.254883,1737.146362 2229.876709,1737.387939 
z" data-index="13" style="visibility: visible;"></path>
<path fill="#FA0000" opacity="1.000000" stroke="none" d="
M2000.633545,467.211853 
	C2013.074219,533.117493 2025.434204,598.172180 2037.463745,663.287964 
	C2039.149292,672.412170 2040.217285,681.767334 2039.868164,691.131592 
	C2038.548950,726.514832 2045.703003,760.644470 2054.827881,794.520386 
	C2059.847168,813.154968 2064.399658,831.915222 2069.406494,850.553406 
	C2071.292725,857.575623 2071.145752,864.214111 2068.550781,871.037476 
	C2066.057373,877.593933 2066.312256,877.703003 2059.799072,876.288025 
	C2057.848877,875.864319 2055.938721,875.117188 2053.971680,874.937500 
	C2048.289062,874.418518 2045.531738,871.354309 2043.608154,865.962952 
	C2035.330566,842.762146 2025.896240,819.956543 2018.171387,796.581177 
	C2010.871460,774.491516 2005.470825,751.816711 2001.662476,728.787354 
	C1999.329712,714.680115 1995.725952,700.778564 1993.522461,686.655212 
	C1987.468140,647.849915 1981.863159,608.974609 1976.058716,570.130188 
	C1969.023682,523.050842 1961.959839,475.975677 1954.925049,428.896240 
	C1953.502075,419.372833 1952.152954,409.838379 1950.658081,399.539551 
	C1956.003418,402.691467 1957.936768,408.561310 1963.244141,411.912659 
	C1964.344971,406.521332 1962.451050,402.134918 1961.642090,397.847260 
	C1958.491577,381.150696 1955.991821,364.392120 1954.710693,347.447937 
	C1952.501221,318.225800 1950.219604,289.009094 1948.032837,259.785278 
	C1947.433105,251.769989 1948.184692,243.848389 1949.704834,235.935532 
	C1950.396973,232.332474 1951.814941,230.536621 1955.513794,230.718140 
	C1959.164307,230.897293 1959.447998,233.590897 1959.874756,236.305878 
	C1963.803101,261.299377 1967.378174,286.356171 1971.796875,311.263123 
	C1979.179321,352.877045 1987.106079,394.394409 1994.804565,435.952271 
	C1996.683594,446.095337 1998.566406,456.237701 2000.633545,467.211853 
z" data-index="14" style="visibility: visible;"></path>
<path fill="#FD0000" opacity="1.000000" stroke="none" d="
M2076.636719,1260.539307 
	C2080.315430,1257.108398 2083.478027,1254.177979 2086.438477,1251.434937 
	C2090.012207,1252.172119 2090.734375,1255.055054 2092.044922,1257.204224 
	C2100.361572,1270.843140 2108.510986,1284.583740 2116.791992,1298.244629 
	C2118.546875,1301.139893 2120.035400,1303.971191 2119.723877,1307.536499 
	C2117.176514,1336.699341 2115.192139,1365.950928 2105.230957,1393.869019 
	C2101.979248,1402.983154 2097.507080,1411.512573 2093.110107,1420.110229 
	C2083.506348,1438.888428 2067.670410,1450.317627 2049.013672,1458.639282 
	C2045.200928,1460.339966 2041.427368,1460.929810 2037.499023,1459.111816 
	C2027.842773,1454.642700 2017.975342,1450.605469 2009.069946,1444.644043 
	C1995.850342,1435.794312 1989.353149,1423.759033 1989.852783,1407.570679 
	C1990.904663,1373.487549 2001.785889,1343.129883 2022.732788,1316.253784 
	C2038.568970,1295.935181 2057.502686,1278.648682 2076.636719,1260.539307 
z" data-index="15" style="visibility: visible;"></path>
<path fill="#F3F3F3" opacity="1.000000" stroke="none" d="
M2775.303223,745.899292 
	C2773.405762,754.846069 2771.077393,763.823547 2765.914307,771.668457 
	C2764.156006,774.340088 2765.287842,775.761353 2767.985840,777.416382 
	C2754.608643,800.011353 2735.692139,815.283142 2710.256348,823.779907 
	C2710.520508,823.181763 2710.853516,821.338928 2709.421143,821.299988 
	C2707.204590,821.239685 2704.898193,822.244873 2702.727783,823.059021 
	C2674.063965,833.811340 2653.382812,852.692139 2642.917969,881.944275 
	C2639.549561,891.360413 2635.484375,900.444275 2630.478271,909.129395 
	C2619.536377,928.112183 2603.481445,939.039062 2581.439209,940.625305 
	C2575.801758,941.031006 2569.926025,942.144104 2564.539795,941.054199 
	C2557.020020,939.532593 2553.564697,943.036743 2550.487793,948.713257 
	C2545.562500,957.801086 2539.573730,966.156616 2533.041016,974.187561 
	C2530.313477,977.540405 2527.690430,978.862183 2523.659180,977.480286 
	C2522.087891,976.941711 2520.452393,976.593506 2518.853271,976.133484 
	C2501.768555,971.219299 2496.298340,961.158020 2501.979004,944.379700 
	C2506.370361,931.409790 2512.890869,919.394226 2519.527588,907.468384 
	C2526.635986,894.695496 2533.855469,881.984619 2541.055664,869.195068 
	C2541.420898,869.622742 2541.820557,869.990784 2542.099854,870.434509 
	C2543.616699,872.844910 2542.114258,877.008789 2545.679199,878.025513 
	C2549.849365,879.214905 2551.279297,875.280579 2553.225830,872.761597 
	C2579.011475,839.392090 2613.866455,820.597351 2653.875488,810.111816 
	C2660.318115,808.423279 2666.688232,806.580750 2672.874268,804.091858 
	C2681.677979,800.550049 2691.023682,798.552185 2699.918457,795.558533 
	C2727.761475,786.187805 2752.188232,770.900574 2771.707275,748.479004 
	C2772.563965,747.495117 2773.638916,746.701416 2775.303223,745.899292 
z" data-index="16" style="visibility: visible;"></path>
<path fill="#F1F1F1" opacity="1.000000" stroke="none" d="
M1525.615967,1866.648682 
	C1549.603760,1860.798218 1573.256470,1857.878784 1597.359619,1861.888916 
	C1634.798828,1868.117920 1663.089966,1887.691406 1682.713745,1920.024658 
	C1685.599854,1924.779907 1686.401855,1929.997070 1685.612549,1935.420044 
	C1684.008789,1946.438599 1678.452637,1955.370483 1670.385010,1962.751221 
	C1665.616699,1967.113892 1659.822388,1968.317505 1653.667236,1966.149414 
	C1650.559814,1965.054932 1647.491577,1963.628418 1644.706909,1961.873779 
	C1623.597168,1948.574219 1602.612427,1935.095825 1582.202148,1920.713501 
	C1569.524902,1911.780151 1558.369019,1901.689087 1550.276123,1888.278198 
	C1545.578247,1880.493530 1539.417603,1873.939819 1530.579346,1870.585571 
	C1529.655151,1870.234985 1528.640869,1870.121582 1526.962524,1869.735840 
	C1525.435303,1868.990112 1525.069580,1868.196533 1525.615967,1866.648682 
z" data-index="17" style="visibility: visible;"></path>
<path fill="#EB0101" opacity="1.000000" stroke="none" d="
M1910.547119,287.301239 
	C1917.042725,327.558319 1923.388916,366.967926 1929.708130,406.381866 
	C1942.763306,487.809143 1953.923462,569.596924 1976.123413,649.280457 
	C1977.275146,653.414185 1977.164551,657.947083 1978.620483,661.937012 
	C1980.629272,667.442627 1978.490601,670.044128 1972.994507,671.915405 
	C1969.807007,666.402527 1969.643433,660.026611 1968.443237,654.093628 
	C1950.439575,565.097778 1932.732178,476.042023 1914.675415,387.057129 
	C1907.981445,354.068756 1903.748047,320.764648 1900.257324,287.333862 
	C1900.153687,286.341248 1900.043457,285.339386 1900.068604,284.345184 
	C1900.138794,281.577057 1898.742920,278.124268 1903.681152,277.842041 
	C1907.899414,277.600922 1909.902832,279.343872 1910.050049,283.478851 
	C1910.085449,284.473846 1910.269775,285.463562 1910.547119,287.301239 
z" data-index="18" style="visibility: visible;"></path>
<path fill="#563434" opacity="1.000000" stroke="none" d="
M2292.798828,1226.305908 
	C2294.308838,1231.187256 2295.180420,1236.024048 2296.175781,1240.835083 
	C2297.248535,1246.019531 2298.996338,1250.801514 2302.548828,1255.018311 
	C2309.305420,1263.038574 2315.657471,1271.399536 2322.341797,1280.250854 
	C2322.756592,1281.435425 2323.007080,1281.988281 2322.633057,1283.203857 
	C2313.398682,1276.524170 2307.426025,1266.863159 2299.931641,1258.528809 
	C2296.228027,1254.410278 2294.472168,1248.788818 2293.358398,1243.161499 
	C2292.332520,1237.980347 2290.941162,1232.871338 2289.799316,1226.921387 
	C2290.663818,1226.158081 2291.439453,1226.203979 2292.798828,1226.305908 
z" data-index="19" style="visibility: visible;"></path>
<path fill="#928C8C" opacity="1.000000" stroke="none" d="
M1525.333740,1865.969360 
	C1526.104858,1866.871948 1526.137329,1867.639526 1526.213135,1868.990479 
	C1522.447876,1870.279053 1518.653320,1870.218506 1512.989258,1869.102295 
	C1517.937744,1867.708862 1521.266479,1866.771606 1525.333740,1865.969360 
z" data-index="20" style="visibility: visible;"></path>
<path fill="#563434" opacity="1.000000" stroke="none" d="
M2292.345459,1218.730713 
	C2293.489746,1218.807983 2293.631104,1219.750000 2293.450684,1221.215454 
	C2292.926025,1220.841919 2292.574219,1220.014282 2292.345459,1218.730713 
z" data-index="21" style="visibility: visible;"></path>
<path fill="#F3F3F3" opacity="1.000000" stroke="none" d="
M2709.613525,823.976746 
	C2709.621094,823.872803 2709.789795,824.278809 2709.789795,824.278809 
	C2709.789795,824.278809 2709.803223,823.837036 2709.635010,824.036377 
	C2709.466797,824.235779 2709.605957,824.080688 2709.613525,823.976746 
z" data-index="22" style="visibility: visible;"></path>
<path fill="#FE0000" opacity="1.000000" stroke="none" d="
M1487.468262,738.531311 
	C1486.627441,737.855286 1485.195679,736.612183 1488.072021,737.300293 
	C1488.240601,737.740967 1487.728760,738.270935 1487.468262,738.531311 
z" data-index="23" style="visibility: visible;"></path>
<path fill="#260707" opacity="1.000000" stroke="none" d="
M1645.560303,1738.418457 
	C1631.871216,1753.935669 1614.241455,1765.224487 1596.169556,1775.792480 
	C1555.797729,1799.400513 1511.937866,1813.410522 1466.213623,1822.044189 
	C1462.358887,1822.772095 1458.601685,1824.648682 1453.463501,1823.431885 
	C1463.689697,1817.549927 1473.970581,1813.652588 1483.965088,1809.201660 
	C1537.419189,1785.397949 1590.908569,1761.673828 1645.560303,1738.418457 
z" data-index="24" style="visibility: visible;"></path>
<path fill="#130101" opacity="1.000000" stroke="none" d="
M1591.594238,425.532654 
	C1587.541626,428.522858 1584.086060,431.121796 1580.578003,433.647858 
	C1578.682495,435.012817 1576.734619,436.581696 1574.785278,433.600250 
	C1573.448975,431.556671 1573.803467,429.872345 1575.622314,428.410645 
	C1587.541260,418.832214 1598.685669,408.288177 1611.410034,399.712830 
	C1613.439941,398.344788 1615.432617,397.133514 1617.528320,399.554199 
	C1619.973999,402.378998 1617.044678,403.639191 1615.756470,405.257935 
	C1609.233887,413.454529 1600.433105,418.968201 1591.594238,425.532654 
z" data-index="25" style="visibility: visible;"></path>
<path fill="#160101" opacity="1.000000" stroke="none" d="
M1898.374756,1266.568726 
	C1899.896484,1263.546753 1901.440674,1262.281494 1904.204468,1263.896484 
	C1906.913208,1265.479492 1906.608032,1267.493164 1905.384521,1269.810181 
	C1901.654419,1276.873291 1897.928101,1283.938599 1894.252075,1291.030029 
	C1893.040649,1293.366821 1891.661255,1294.833374 1888.790039,1293.368652 
	C1885.898193,1291.893311 1886.368896,1290.002319 1887.602051,1287.648560 
	C1891.154541,1280.868408 1894.580200,1274.021729 1898.374756,1266.568726 
z" data-index="26" style="visibility: visible;"></path>
<path fill="#260707" opacity="1.000000" stroke="none" d="
M1646.080322,1738.098999 
	C1646.494629,1736.717041 1647.581665,1735.902832 1648.590210,1736.770386 
	C1649.535522,1737.583984 1648.016602,1737.890137 1647.175049,1738.677002 
	C1646.734863,1738.914673 1646.300171,1738.369507 1646.080322,1738.098999 
z" data-index="27" style="visibility: visible;"></path>
<path fill="#020101" opacity="1.000000" stroke="none" d="
M1878.938965,1095.194580 
	C1878.906860,1094.782715 1879.134766,1094.528198 1879.320801,1094.555908 
	C1879.505127,1094.583130 1879.647217,1094.895020 1879.807739,1095.082031 
	C1879.598755,1095.213135 1879.389771,1095.344360 1878.938965,1095.194580 
z" data-index="28" style="visibility: visible;"></path>
<path fill="#190808" opacity="1.000000" stroke="none" d="
M2293.872314,1667.857910 
	C2294.078613,1667.205933 2294.607422,1666.478516 2295.028076,1666.536377 
	C2295.850830,1666.649658 2295.956299,1667.363647 2295.064209,1668.375000 
	C2294.697998,1668.692017 2294.145996,1668.137573 2293.872314,1667.857910 
z" data-index="29" style="visibility: visible;"></path>
<path fill="#150909" opacity="1.000000" stroke="none" d="
M2459.554688,1112.366333 
	C2468.275146,1109.473755 2475.963379,1105.525391 2483.887207,1102.142700 
	C2492.803711,1098.336060 2502.114746,1095.782837 2511.714111,1094.588135 
	C2516.410156,1094.003662 2520.734619,1092.360840 2525.218018,1091.166992 
	C2527.766357,1090.488525 2530.278320,1089.076294 2532.035889,1092.567261 
	C2533.659180,1095.791504 2532.745850,1098.440796 2530.299072,1100.546631 
	C2527.037109,1103.354492 2523.571533,1105.933350 2520.118652,1108.510986 
	C2491.879883,1129.591675 2477.254395,1158.882202 2470.808594,1192.528320 
	C2465.896240,1218.171021 2484.270508,1235.499634 2510.763916,1231.278564 
	C2519.942627,1229.816162 2529.042480,1227.860107 2538.989746,1226.138184 
	C2533.487061,1234.193970 2524.252197,1237.121094 2515.049805,1239.756714 
	C2504.412354,1242.803223 2493.461426,1243.347168 2482.448242,1242.109497 
	C2457.735352,1239.332153 2444.992920,1220.818237 2451.507324,1196.816162 
	C2455.870117,1180.742554 2462.986816,1165.724365 2469.917725,1150.653076 
	C2474.907959,1139.801514 2480.093750,1129.035034 2484.828369,1118.073242 
	C2486.420654,1114.386353 2488.475342,1112.302002 2492.403076,1111.150391 
	C2500.259277,1108.846680 2507.930664,1105.913574 2516.933105,1102.807373 
	C2500.290527,1100.285522 2468.057861,1113.848633 2451.214355,1129.689819 
	C2444.405029,1123.061035 2449.347168,1119.043091 2455.198242,1114.426636 
	C2455.832031,1113.754517 2456.010742,1113.918823 2455.901367,1113.866455 
	C2456.824951,1113.222046 2457.989258,1113.042603 2459.554688,1112.366333 
z" data-index="30" style="visibility: visible;"></path>
<path fill="#2C0F0F" opacity="1.000000" stroke="none" d="
M2455.118652,1113.802246 
	C2455.785156,1115.455200 2455.342773,1117.048584 2453.817383,1117.952026 
	C2449.664062,1120.411743 2449.748047,1124.231934 2450.448730,1129.150879 
	C2436.045166,1147.094604 2421.522461,1164.141479 2406.457031,1181.576416 
	C2402.079102,1183.983032 2400.318604,1181.920654 2399.470215,1177.678833 
	C2399.154297,1174.635620 2400.197998,1172.934326 2401.386963,1171.334717 
	C2410.851318,1158.600342 2419.043213,1144.941895 2429.402100,1132.855469 
	C2436.378174,1124.715942 2444.367188,1117.944336 2455.118652,1113.802246 
z" data-index="31" style="visibility: visible;"></path>
<path fill="#120909" opacity="1.000000" stroke="none" d="
M2399.098145,1177.263062 
	C2400.412354,1179.314697 2401.802246,1181.167725 2405.194092,1181.884521 
	C2406.069092,1185.578125 2403.445068,1187.993896 2401.966797,1190.871582 
	C2393.304688,1207.735352 2386.468262,1225.144043 2385.708008,1244.380859 
	C2385.565186,1247.990479 2385.982910,1251.622437 2386.311523,1256.087402 
	C2386.327637,1257.677002 2386.501465,1258.346191 2387.131592,1259.466064 
	C2387.494141,1261.489258 2387.680420,1262.996094 2387.711182,1265.253662 
	C2384.019287,1268.784546 2381.098145,1268.034668 2378.669189,1264.457031 
	C2378.956299,1267.114624 2380.470215,1270.735596 2375.292969,1268.169434 
	C2375.778076,1262.766724 2376.095215,1258.165405 2376.606689,1252.714111 
	C2376.973389,1250.734375 2377.022461,1249.583862 2377.469238,1247.919067 
	C2376.874023,1233.391235 2382.532227,1220.914795 2386.948486,1208.194336 
	C2390.508301,1197.941406 2395.872559,1188.356567 2399.098145,1177.263062 
z" data-index="32" style="visibility: visible;"></path>
<path fill="#331414" opacity="1.000000" stroke="none" d="
M2375.037598,1267.952637 
	C2375.681885,1267.596069 2376.078369,1268.037476 2376.098389,1268.021240 
	C2377.681396,1266.718018 2383.412354,1265.536499 2386.869141,1265.993896 
	C2391.151367,1279.784546 2383.574707,1287.188965 2373.346191,1292.216675 
	C2369.144043,1294.282227 2364.725098,1295.728394 2360.045898,1296.281738 
	C2358.063721,1296.516235 2355.304199,1296.022705 2354.232422,1297.140137 
	C2348.207520,1303.420654 2342.903564,1298.683594 2337.457275,1296.465820 
	C2335.954590,1295.853882 2334.696289,1294.642456 2333.503418,1292.966553 
	C2341.029785,1293.078003 2347.993652,1291.058472 2354.951416,1289.234619 
	C2365.726074,1286.410278 2372.920410,1280.052856 2375.037598,1267.952637 
z" data-index="33" style="visibility: visible;"></path>
<path fill="#331414" opacity="1.000000" stroke="none" d="
M2322.370117,1284.445312 
	C2322.084717,1283.368408 2322.160400,1282.870361 2322.371094,1281.627563 
	C2326.258789,1284.252563 2330.011475,1287.622437 2333.802246,1291.685791 
	C2328.311035,1292.685913 2326.424316,1287.491089 2322.370117,1284.445312 
z" data-index="34" style="visibility: visible;"></path>
<path fill="#331414" opacity="1.000000" stroke="none" d="
M2387.441406,1259.419678 
	C2386.962891,1259.336182 2386.617920,1258.689697 2386.376953,1257.487061 
	C2386.845947,1257.572754 2387.210693,1258.214722 2387.441406,1259.419678 
z" data-index="35" style="visibility: visible;"></path>
<path fill="#2C0F0F" opacity="1.000000" stroke="none" d="
M2459.376953,1111.953003 
	C2459.312500,1113.091553 2458.340820,1113.748413 2456.411133,1113.845947 
	C2456.432129,1112.632690 2457.536621,1112.184082 2459.376953,1111.953003 
z" data-index="36" style="visibility: visible;"></path>
<path fill="#331414" opacity="1.000000" stroke="none" d="
M2377.221924,1247.847168 
	C2377.560059,1248.540894 2377.543457,1249.724976 2377.164062,1251.386719 
	C2376.823242,1250.688843 2376.845215,1249.513184 2377.221924,1247.847168 
z" data-index="37" style="visibility: visible;"></path>
<path fill="#F9F9F9" opacity="1.000000" stroke="none" d="
M2229.627930,1737.722656 
	C2229.407715,1736.757080 2229.803467,1736.361084 2230.664551,1736.540039 
	C2231.628906,1736.740479 2231.730469,1737.218384 2230.498779,1737.947510 
	C2230.010254,1738.010010 2229.757568,1737.815552 2229.627930,1737.722656 
z" data-index="38" style="visibility: visible;"></path>
<path fill="#060606" opacity="1.000000" stroke="none" d="
M2662.203857,825.803711 
	C2655.895752,833.877075 2648.042725,840.048706 2642.410645,848.390381 
	C2636.599609,856.997314 2631.740967,865.947998 2628.109131,875.681030 
	C2623.574951,887.832031 2618.569824,899.747925 2610.192139,909.987427 
	C2603.456787,918.219421 2594.723145,922.524536 2584.567383,923.996216 
	C2577.016602,925.090210 2569.373291,925.804443 2561.681396,924.659729 
	C2552.064209,923.228516 2544.931885,926.992920 2539.937988,935.328003 
	C2536.007324,941.888855 2531.952637,948.398865 2527.528320,954.629578 
	C2525.658203,957.263062 2524.067383,961.897583 2519.109375,959.138672 
	C2514.236572,956.427246 2515.943115,952.479553 2517.464844,948.716797 
	C2521.705566,938.230225 2526.484375,927.995483 2532.017334,918.121338 
	C2534.454834,913.770569 2536.915527,909.432556 2539.319580,905.063232 
	C2542.509766,899.264099 2545.145264,893.326477 2553.539062,893.137451 
	C2557.362061,893.051331 2560.615723,889.809143 2563.060791,886.432495 
	C2587.101074,853.232361 2620.843994,835.286743 2660.308105,825.039734 
	C2661.412842,825.035522 2661.755615,825.152954 2662.203857,825.803711 
z" data-index="39" style="visibility: visible;"></path>
<path fill="#060606" opacity="1.000000" stroke="none" d="
M2661.374023,825.277588 
	C2662.160400,824.193237 2663.586426,823.778625 2664.454590,824.638489 
	C2665.448486,825.622559 2663.764893,825.652649 2662.840332,826.262207 
	C2662.309326,826.336975 2661.678467,825.637146 2661.374023,825.277588 
z" data-index="40" style="visibility: visible;"></path>
</svg>